<?xml version="1.0" encoding="utf-8"?>
<!-- Generator: Adobe Illustrator 16.0.0, SVG Export Plug-In . SVG Version: 6.00 Build 0)  -->
<!DOCTYPE svg PUBLIC "-//W3C//DTD SVG 1.1//EN" "http://www.w3.org/Graphics/SVG/1.1/DTD/svg11.dtd">
<svg version="1.1" id="Capa_1" xmlns="http://www.w3.org/2000/svg" xmlns:xlink="http://www.w3.org/1999/xlink" x="0px" y="0px"
	 width="137.883px" height="45px" viewBox="0 0 137.883 45" enable-background="new 0 0 137.883 45" xml:space="preserve">
<path fill="#1D1D1B" d="M137.883,38.944c0,3.36-2.725,6.086-6.085,6.086H6.293c-3.36,0-6.086-2.726-6.086-6.086V6.082
	c0-3.361,2.726-6.086,6.086-6.086h125.504c3.36,0,6.085,2.726,6.085,6.086V38.944z"/>
<g id="PLAY_1_">
	<defs>
		<path id="SVGID_1_" d="M30.043,19.818l-6.208-3.584c0,0-11.309-6.531-11.974-6.914c-0.666-0.383-1.327-0.151-1.327,0.651
			c0,1.336,0,13.943,0,13.943s0,13.625,0,14.226c0,0.602,0.473,0.862,1.05,0.527c0.578-0.335,12.25-7.073,12.25-7.073l6.208-3.584
			c0,0,5.267-3.04,5.968-3.445c0.7-0.404,0.632-0.959,0.042-1.277C35.462,22.97,30.043,19.818,30.043,19.818z"/>
	</defs>
	<clipPath id="SVGID_2_">
		<use xlink:href="#SVGID_1_"  overflow="visible"/>
	</clipPath>
	<linearGradient id="SVGID_3_" gradientUnits="userSpaceOnUse" x1="18.2231" y1="8.6655" x2="18.2231" y2="39.1636">
		<stop  offset="0" style="stop-color:#207AB0"/>
		<stop  offset="0.3206" style="stop-color:#4A98B5"/>
		<stop  offset="0.7782" style="stop-color:#81C0BB"/>
		<stop  offset="1" style="stop-color:#97CFBE"/>
	</linearGradient>
	<polygon clip-path="url(#SVGID_2_)" fill="url(#SVGID_3_)" points="10.535,8.666 10.535,23.914 10.535,39.163 25.912,23.915 	"/>
	<linearGradient id="SVGID_4_" gradientUnits="userSpaceOnUse" x1="10.5347" y1="16.2349" x2="30.0435" y2="16.2349">
		<stop  offset="0" style="stop-color:#59BBAA"/>
		<stop  offset="1" style="stop-color:#E6E89A"/>
	</linearGradient>
	<polygon clip-path="url(#SVGID_2_)" fill="url(#SVGID_4_)" points="30.043,19.818 23.835,16.234 10.535,8.555 10.535,8.666 
		25.912,23.915 	"/>
	<linearGradient id="SVGID_5_" gradientUnits="userSpaceOnUse" x1="20.2886" y1="23.915" x2="20.2886" y2="39.2744">
		<stop  offset="0" style="stop-color:#E43332"/>
		<stop  offset="0.1636" style="stop-color:#D43643"/>
		<stop  offset="0.7271" style="stop-color:#A23E7A"/>
		<stop  offset="1" style="stop-color:#8E4190"/>
	</linearGradient>
	<polygon clip-path="url(#SVGID_2_)" fill="url(#SVGID_5_)" points="10.535,39.163 10.535,39.274 23.835,31.594 30.043,28.01 
		25.912,23.915 	"/>
	<linearGradient id="SVGID_6_" gradientUnits="userSpaceOnUse" x1="31.5249" y1="19.8184" x2="31.5249" y2="28.0103">
		<stop  offset="0" style="stop-color:#F08779"/>
		<stop  offset="0.6326" style="stop-color:#F8B474"/>
		<stop  offset="1" style="stop-color:#FCCA72"/>
	</linearGradient>
	<polygon clip-path="url(#SVGID_2_)" fill="url(#SVGID_6_)" points="30.043,19.818 25.912,23.915 30.043,28.01 37.137,23.914 	"/>
</g>
<g>
	<path fill="#F9F9F9" d="M107.353,29.876c-0.577,0-1.105-0.107-1.582-0.32c-0.478-0.212-0.878-0.54-1.202-0.981h-0.098
		c0.065,0.518,0.098,1.008,0.098,1.473v3.648h-1.344V20.845h1.094l0.185,1.214h0.065c0.346-0.485,0.748-0.836,1.207-1.052
		c0.458-0.215,0.984-0.323,1.577-0.323c1.177,0,2.084,0.402,2.723,1.206c0.64,0.804,0.96,1.932,0.96,3.383
		c0,1.457-0.325,2.589-0.976,3.395C109.41,29.473,108.508,29.876,107.353,29.876z M107.158,21.824c-0.907,0-1.562,0.25-1.967,0.753
		c-0.403,0.501-0.611,1.3-0.623,2.396v0.299c0,1.246,0.209,2.138,0.623,2.674c0.416,0.537,1.081,0.807,1.999,0.807
		c0.767,0,1.367-0.311,1.801-0.932c0.435-0.62,0.652-1.475,0.652-2.566c0-1.104-0.218-1.953-0.652-2.544
		C108.558,22.119,107.946,21.824,107.158,21.824z"/>
	<path fill="#F9F9F9" d="M114.145,29.713h-1.343V17.122h1.343V29.713z"/>
	<path fill="#F9F9F9" d="M121.867,29.713l-0.266-1.262h-0.065c-0.442,0.556-0.884,0.934-1.323,1.129
		c-0.439,0.197-0.989,0.296-1.646,0.296c-0.879,0-1.568-0.227-2.068-0.68c-0.499-0.453-0.749-1.098-0.749-1.935
		c0-1.79,1.432-2.729,4.297-2.816l1.507-0.048v-0.551c0-0.695-0.15-1.209-0.449-1.541c-0.3-0.333-0.778-0.499-1.436-0.499
		c-0.74,0-1.577,0.227-2.509,0.68l-0.414-1.027c0.436-0.237,0.916-0.423,1.438-0.559c0.52-0.134,1.041-0.203,1.565-0.203
		c1.057,0,1.841,0.235,2.351,0.705c0.51,0.469,0.765,1.221,0.765,2.257v6.053H121.867z M118.834,28.768
		c0.836,0,1.492-0.229,1.97-0.688c0.478-0.459,0.716-1.1,0.716-1.928v-0.8l-1.343,0.056c-1.069,0.038-1.839,0.204-2.311,0.499
		c-0.472,0.294-0.707,0.75-0.707,1.372c0,0.484,0.146,0.854,0.44,1.108C117.894,28.64,118.305,28.768,118.834,28.768z"/>
	<path fill="#F9F9F9" d="M123.643,20.845h1.439l1.943,5.058c0.426,1.154,0.691,1.988,0.794,2.501h0.064
		c0.069-0.276,0.218-0.746,0.441-1.412c0.223-0.667,0.955-2.715,2.196-6.146h1.441l-3.812,10.099
		c-0.378,0.998-0.818,1.707-1.323,2.126c-0.505,0.417-1.124,0.626-1.857,0.626c-0.41,0-0.814-0.046-1.213-0.137v-1.076
		c0.296,0.064,0.627,0.096,0.995,0.096c0.922,0,1.58-0.517,1.975-1.552l0.492-1.264L123.643,20.845z"/>
</g>
<g>
	<path fill="#F9F9F9" d="M82.469,21.669c0.426,0.353,1.316,1.093,1.316,2.504c0,1.371-0.779,2.021-1.56,2.635
		c-0.24,0.24-0.519,0.5-0.519,0.909c0,0.406,0.278,0.63,0.482,0.797l0.668,0.519c0.816,0.687,1.558,1.317,1.558,2.599
		c0,1.744-1.688,3.505-4.88,3.505c-2.688,0-3.987-1.279-3.987-2.653c0-0.667,0.333-1.613,1.43-2.263
		c1.147-0.705,2.708-0.797,3.542-0.854c-0.261-0.334-0.557-0.687-0.557-1.261c0-0.315,0.093-0.501,0.186-0.725
		c-0.205,0.02-0.408,0.037-0.595,0.037c-1.965,0-3.078-1.466-3.078-2.912c0-0.853,0.39-1.8,1.188-2.485
		c1.058-0.873,2.318-1.021,3.32-1.021h3.821l-1.187,0.668H82.469z M81.15,29.905c-0.149-0.02-0.241-0.02-0.427-0.02
		c-0.165,0-1.17,0.039-1.947,0.3c-0.408,0.146-1.596,0.593-1.596,1.91c0,1.316,1.28,2.264,3.266,2.264
		c1.779,0,2.727-0.855,2.727-2.004C83.173,31.407,82.562,30.909,81.15,29.905z M81.688,26.381c0.426-0.428,0.464-1.02,0.464-1.354
		c0-1.336-0.8-3.414-2.338-3.414c-0.481,0-1.001,0.241-1.298,0.612c-0.315,0.39-0.409,0.89-0.409,1.373
		c0,1.242,0.723,3.301,2.32,3.301C80.891,26.899,81.391,26.678,81.688,26.381z"/>
	<path fill="#F9F9F9" d="M70.789,29.608c-2.944,0-4.52-2.296-4.52-4.371c0-2.426,1.982-4.5,4.799-4.5
		c2.721,0,4.425,2.128,4.425,4.371C75.493,27.293,73.809,29.608,70.789,29.608z M73.104,28.109c0.445-0.593,0.556-1.334,0.556-2.057
		c0-1.631-0.776-4.742-3.073-4.742c-0.611,0-1.223,0.242-1.667,0.631c-0.722,0.647-0.853,1.463-0.853,2.259
		c0,1.833,0.906,4.851,3.149,4.851C71.938,29.052,72.679,28.701,73.104,28.109z"/>
	<path fill="#F9F9F9" d="M60.75,29.608c-2.944,0-4.52-2.296-4.52-4.371c0-2.426,1.982-4.5,4.799-4.5
		c2.722,0,4.425,2.128,4.425,4.371C65.454,27.293,63.77,29.608,60.75,29.608z M63.065,28.109c0.444-0.593,0.556-1.334,0.556-2.057
		c0-1.631-0.777-4.742-3.075-4.742c-0.61,0-1.223,0.242-1.666,0.631c-0.722,0.647-0.853,1.463-0.853,2.259
		c0,1.833,0.907,4.851,3.149,4.851C61.899,29.052,62.64,28.701,63.065,28.109z"/>
	<path fill="#F9F9F9" d="M54.816,29.319l-2.664,0.613c-1.079,0.169-2.047,0.316-3.071,0.316c-5.14,0-7.095-3.779-7.095-6.741
		c0-3.612,2.774-6.962,7.523-6.962c1.005,0,1.974,0.148,2.849,0.39c1.396,0.391,2.049,0.875,2.458,1.155l-1.546,1.471l-0.651,0.148
		l0.465-0.745c-0.632-0.614-1.788-1.75-3.984-1.75c-2.942,0-5.159,2.235-5.159,5.494c0,3.5,2.533,6.797,6.591,6.797
		c1.193,0,1.807-0.243,2.365-0.467v-2.997l-2.811,0.147l1.487-0.8h3.949l-0.484,0.465c-0.132,0.111-0.149,0.149-0.186,0.297
		c-0.021,0.168-0.037,0.708-0.037,0.895V29.319z"/>
	<path fill="#F9F9F9" d="M88.354,28.783c-0.616-0.057-0.745-0.168-0.745-0.895v-0.206V17.349c0.004-0.041,0.006-0.081,0.01-0.12
		c0.076-0.651,0.262-0.763,0.84-1.099h-2.663l-1.398,0.671h1.424v0.008l-0.001-0.007v10.88v0.615c0,0.372-0.073,0.429-0.502,0.987
		h3.296l0.689-0.409C88.987,28.838,88.671,28.819,88.354,28.783z"/>
	<path fill="#F9F9F9" d="M95.93,28.954c-0.202,0.11-0.405,0.24-0.608,0.333c-0.611,0.277-1.239,0.352-1.796,0.352
		c-0.589,0-1.515-0.038-2.459-0.721c-1.312-0.927-1.885-2.517-1.885-3.903c0-2.866,2.329-4.271,4.234-4.271
		c0.666,0,1.352,0.167,1.905,0.518c0.923,0.609,1.165,1.405,1.292,1.83L92.27,24.85l-1.425,0.109
		c0.462,2.349,2.052,3.716,3.81,3.716c0.943,0,1.628-0.332,2.257-0.646L95.93,28.954z M94.192,23.441
		c0.351-0.128,0.536-0.239,0.536-0.498c0-0.739-0.833-1.59-1.832-1.59c-0.739,0-2.125,0.574-2.125,2.571
		c0,0.314,0.037,0.646,0.055,0.979L94.192,23.441z"/>
	<g>
		<path fill="#F9F9F9" d="M97.716,20.87v1.22h-0.148v-1.22h-0.403v-0.127h0.954v0.127H97.716z"/>
		<path fill="#F9F9F9" d="M99.38,22.09v-1.231h-0.008l-0.376,1.231H98.88l-0.378-1.231h-0.006v1.231h-0.135v-1.347h0.23l0.343,1.088
			h0.005l0.338-1.088h0.234v1.347H99.38z"/>
	</g>
</g>
<g>
	<path fill="#FFFFFF" d="M42.101,12.748V9.305h1.181c0.421,0,0.768,0.134,1.041,0.403c0.273,0.269,0.409,0.614,0.409,1.034v0.57
		c0,0.422-0.136,0.767-0.409,1.035c-0.272,0.267-0.619,0.4-1.041,0.4H42.101z M42.791,9.837v2.378h0.456
		c0.248,0,0.441-0.083,0.581-0.25c0.141-0.167,0.211-0.386,0.211-0.655v-0.574c0-0.266-0.071-0.483-0.211-0.649
		c-0.14-0.167-0.333-0.251-0.581-0.251H42.791z"/>
	<path fill="#FFFFFF" d="M46.491,12.748H45.8V9.305h0.691V12.748z"/>
	<path fill="#FFFFFF" d="M49.521,11.849c0-0.132-0.047-0.239-0.141-0.319c-0.094-0.081-0.258-0.157-0.493-0.228
		c-0.41-0.118-0.72-0.258-0.93-0.42c-0.209-0.163-0.314-0.384-0.314-0.667c0-0.281,0.12-0.512,0.361-0.691
		c0.24-0.179,0.547-0.269,0.92-0.269c0.378,0,0.687,0.102,0.924,0.302c0.238,0.201,0.354,0.449,0.346,0.743l-0.005,0.015h-0.669
		c0-0.16-0.054-0.288-0.16-0.387C49.255,9.83,49.105,9.78,48.914,9.78c-0.185,0-0.328,0.042-0.429,0.124
		c-0.101,0.082-0.151,0.187-0.151,0.314c0,0.116,0.054,0.213,0.162,0.287c0.108,0.075,0.294,0.154,0.559,0.238
		c0.38,0.105,0.667,0.246,0.863,0.419c0.196,0.173,0.294,0.4,0.294,0.683c0,0.295-0.117,0.527-0.349,0.698
		c-0.233,0.17-0.54,0.255-0.921,0.255c-0.376,0-0.703-0.096-0.982-0.29c-0.278-0.192-0.414-0.463-0.406-0.812l0.004-0.014h0.671
		c0,0.205,0.063,0.355,0.188,0.451s0.3,0.142,0.524,0.142c0.187,0,0.331-0.038,0.43-0.115S49.521,11.979,49.521,11.849z"/>
	<path fill="#FFFFFF" d="M51.908,11.5v1.248h-0.69V9.305h1.372c0.396,0,0.707,0.101,0.935,0.303c0.226,0.202,0.34,0.467,0.34,0.797
		c0,0.33-0.114,0.595-0.34,0.794c-0.228,0.2-0.539,0.301-0.935,0.301H51.908z M51.908,10.967h0.682c0.191,0,0.338-0.052,0.437-0.157
		c0.101-0.104,0.149-0.239,0.149-0.401c0-0.166-0.049-0.302-0.148-0.41c-0.098-0.108-0.244-0.163-0.438-0.163h-0.682V10.967z"/>
	<path fill="#FFFFFF" d="M57.625,11.336c0,0.423-0.134,0.771-0.4,1.047c-0.269,0.276-0.614,0.414-1.042,0.414
		c-0.424,0-0.769-0.138-1.032-0.414c-0.266-0.276-0.397-0.625-0.397-1.047v-0.62c0-0.42,0.132-0.769,0.396-1.046
		c0.263-0.276,0.607-0.416,1.031-0.416c0.426,0,0.773,0.139,1.043,0.416c0.268,0.277,0.401,0.626,0.401,1.046V11.336z
		 M56.936,10.714c0-0.269-0.067-0.489-0.201-0.661c-0.136-0.172-0.319-0.258-0.554-0.258c-0.235,0-0.417,0.085-0.546,0.257
		c-0.129,0.17-0.194,0.392-0.194,0.662v0.625c0,0.273,0.065,0.495,0.197,0.667c0.13,0.173,0.312,0.259,0.545,0.259
		c0.236,0,0.42-0.086,0.554-0.259c0.133-0.172,0.199-0.394,0.199-0.667V10.714z"/>
	<path fill="#FFFFFF" d="M61.431,12.748h-0.688l-1.391-2.353l-0.015,0.002v2.351h-0.69V9.305h0.69l1.391,2.35l0.015-0.002V9.305
		h0.688V12.748z"/>
	<path fill="#FFFFFF" d="M63.294,12.748h-0.691V9.305h0.691V12.748z"/>
	<path fill="#FFFFFF" d="M64.466,12.748V9.305h1.163c0.405,0,0.721,0.079,0.947,0.236c0.227,0.158,0.342,0.394,0.342,0.707
		c0,0.159-0.043,0.301-0.126,0.427c-0.086,0.125-0.208,0.219-0.368,0.282c0.205,0.044,0.361,0.139,0.464,0.283
		c0.104,0.145,0.154,0.313,0.154,0.503c0,0.33-0.107,0.579-0.325,0.749c-0.218,0.169-0.525,0.254-0.925,0.254H64.466z
		 M65.156,10.747h0.496c0.186,0,0.326-0.038,0.427-0.113c0.099-0.076,0.148-0.186,0.148-0.332c0-0.159-0.051-0.276-0.149-0.352
		c-0.102-0.076-0.251-0.114-0.449-0.114h-0.473V10.747z M65.156,11.225v0.99h0.636c0.183,0,0.322-0.039,0.419-0.119
		c0.096-0.079,0.144-0.197,0.144-0.353c0-0.168-0.041-0.296-0.122-0.385c-0.083-0.089-0.211-0.133-0.388-0.133H65.156z"/>
	<path fill="#FFFFFF" d="M68.746,12.215h1.533v0.532h-2.223V9.305h0.689V12.215z"/>
	<path fill="#FFFFFF" d="M73.276,11.234H71.85v0.981h1.669v0.532H71.16V9.305h2.353v0.532H71.85v0.866h1.427V11.234z"/>
	<path fill="#FFFFFF" d="M78.231,11.234h-1.425v0.981h1.665v0.532h-2.356V9.305h2.352v0.532h-1.66v0.866h1.425V11.234z"/>
	<path fill="#FFFFFF" d="M82.163,12.748h-0.688l-1.39-2.353l-0.015,0.002v2.351h-0.691V9.305h0.691l1.39,2.35l0.015-0.002V9.305
		h0.688V12.748z"/>
</g>
</svg>
