<?xml version="1.0" encoding="utf-8"?>
<!-- Generator: Adobe Illustrator 16.0.0, SVG Export Plug-In . SVG Version: 6.00 Build 0)  -->
<!DOCTYPE svg PUBLIC "-//W3C//DTD SVG 1.1//EN" "http://www.w3.org/Graphics/SVG/1.1/DTD/svg11.dtd">
<svg version="1.1" id="Capa_1" xmlns="http://www.w3.org/2000/svg" xmlns:xlink="http://www.w3.org/1999/xlink" x="0px" y="0px"
	 width="240.5px" height="51px" viewBox="0 0 240.5 51" enable-background="new 0 0 240.5 51" xml:space="preserve">
<g>
	<path fill="#F18B15" d="M24.476,1.87C11.494,1.87,0.97,12.394,0.97,25.377c0,4.87,1.481,9.395,4.018,13.146
		c-0.243,0.875-1.658,5.979-2.186,8.074c-0.13,0.519,0.078,0.813,0.584,0.678c2.061-0.549,7.386-1.871,8.385-2.117
		c3.664,2.357,8.025,3.725,12.705,3.725c12.982,0,23.507-10.523,23.507-23.506C47.982,12.395,37.458,1.87,24.476,1.87z"/>
	
		<linearGradient id="SVGID_1_" gradientUnits="userSpaceOnUse" x1="309.7803" y1="-245.5156" x2="290.5275" y2="-226.2628" gradientTransform="matrix(1 0 0 -1 -271 -209)">
		<stop  offset="0.0794" style="stop-color:#F18B15;stop-opacity:0"/>
		<stop  offset="1" style="stop-color:#6F4302"/>
	</linearGradient>
	<polygon fill="url(#SVGID_1_)" points="11.935,24.856 29.668,44.939 47.547,27.749 39.069,19.328 23.128,35.318 	"/>
	<g>
		<g>
			<polygon id="SVGID_2_" fill="#FFFFFF" points="11.461,24.856 17.142,19.081 22.822,24.761 33.615,13.874 39.295,19.554 
				22.727,36.027 			"/>
		</g>
	</g>
</g>
<g>
	<path fill="#FFFFFF" d="M65.221,29.17l0.098,0.518h0.059l0.098-0.479l2.822-10.4h3.457l-4.609,14.219H63.58l-4.59-14.219h3.447
		L65.221,29.17z"/>
	<path fill="#FFFFFF" d="M76.139,20.01h-3.311v-2.217h3.311V20.01z M76.139,33.027h-3.311V22.461h3.311V33.027z"/>
	<path fill="#FFFFFF" d="M84.234,33.018c-0.091-0.169-0.174-0.358-0.249-0.566s-0.139-0.423-0.19-0.645
		c-0.312,0.437-0.69,0.783-1.133,1.04s-0.979,0.386-1.611,0.386c-1.003,0-1.818-0.29-2.446-0.869
		c-0.628-0.579-0.942-1.351-0.942-2.314c0-1.048,0.392-1.857,1.177-2.427c0.784-0.569,1.978-0.854,3.579-0.854h1.201v-0.752
		c0-0.449-0.105-0.794-0.317-1.035s-0.539-0.361-0.981-0.361c-0.378,0-0.659,0.09-0.845,0.269s-0.278,0.457-0.278,0.835l-3.193-0.01
		l-0.02-0.059c-0.045-0.964,0.355-1.77,1.201-2.417c0.847-0.647,1.966-0.972,3.359-0.972c1.302,0,2.358,0.325,3.169,0.977
		s1.216,1.582,1.216,2.793v3.984c0,0.566,0.047,1.091,0.142,1.572s0.236,0.96,0.425,1.436L84.234,33.018z M82.057,30.879
		c0.325,0,0.625-0.065,0.898-0.195s0.495-0.3,0.664-0.508v-1.65h-1.172c-0.521,0-0.9,0.127-1.138,0.381s-0.356,0.576-0.356,0.967
		c0,0.3,0.103,0.542,0.308,0.728S81.731,30.879,82.057,30.879z"/>
	<path fill="#FFFFFF" d="M100.016,28.037l0.02,0.059c-0.065,1.667-0.559,2.939-1.479,3.818s-2.258,1.318-4.009,1.318
		c-1.758,0-3.187-0.54-4.287-1.621s-1.65-2.483-1.65-4.209v-2.969c0-1.719,0.529-3.12,1.587-4.204s2.434-1.626,4.126-1.626
		c1.797,0,3.171,0.452,4.121,1.357s1.487,2.19,1.611,3.857l-0.02,0.059h-3.213c-0.046-0.925-0.252-1.611-0.62-2.061
		s-0.994-0.674-1.88-0.674c-0.749,0-1.338,0.301-1.768,0.903s-0.645,1.392-0.645,2.368v2.988c0,0.983,0.234,1.777,0.703,2.383
		s1.113,0.908,1.934,0.908c0.794,0,1.357-0.212,1.689-0.635s0.521-1.097,0.566-2.021H100.016z"/>
	<path fill="#FFFFFF" d="M106.441,33.232c-1.556,0-2.798-0.488-3.726-1.465s-1.392-2.2-1.392-3.672v-0.371
		c0-1.608,0.422-2.922,1.265-3.94s2.049-1.525,3.618-1.519c1.433,0,2.556,0.43,3.369,1.289s1.221,2.024,1.221,3.496v1.729h-6.035
		l-0.02,0.059c0.071,0.54,0.293,0.984,0.664,1.333s0.866,0.522,1.484,0.522c0.625,0,1.125-0.049,1.499-0.146
		s0.848-0.267,1.421-0.508l0.781,2.012c-0.462,0.339-1.06,0.62-1.792,0.845S107.281,33.232,106.441,33.232z M106.207,24.805
		c-0.476,0-0.832,0.169-1.069,0.508s-0.383,0.791-0.435,1.357l0.029,0.049h2.842v-0.254c0-0.534-0.11-0.944-0.332-1.23
		S106.676,24.805,106.207,24.805z"/>
	<path fill="#FFFFFF" d="M115.65,33.027h-3.311V17.793h3.311V33.027z"/>
	<path fill="#FFFFFF" d="M124.01,31.777c-0.339,0.469-0.754,0.828-1.245,1.079s-1.047,0.376-1.665,0.376
		c-1.094,0-1.951-0.352-2.573-1.055s-0.933-1.794-0.933-3.271v-6.445h3.291v6.465c0,0.593,0.112,1.035,0.337,1.328
		s0.545,0.439,0.962,0.439c0.352,0,0.661-0.049,0.928-0.146s0.495-0.244,0.684-0.439v-7.646h3.301v10.566h-2.881L124.01,31.777z"/>
	<path fill="#FFFFFF" d="M132.369,33.027h-3.311V17.793h3.311V33.027z"/>
	<path fill="#FFFFFF" d="M140.465,33.018c-0.091-0.169-0.174-0.358-0.249-0.566s-0.139-0.423-0.19-0.645
		c-0.312,0.437-0.69,0.783-1.133,1.04s-0.979,0.386-1.611,0.386c-1.003,0-1.818-0.29-2.446-0.869s-0.942-1.351-0.942-2.314
		c0-1.048,0.393-1.857,1.177-2.427s1.978-0.854,3.579-0.854h1.201v-0.752c0-0.449-0.105-0.794-0.317-1.035s-0.539-0.361-0.981-0.361
		c-0.378,0-0.659,0.09-0.845,0.269s-0.278,0.457-0.278,0.835l-3.193-0.01l-0.02-0.059c-0.046-0.964,0.354-1.77,1.201-2.417
		s1.966-0.972,3.359-0.972c1.302,0,2.358,0.325,3.169,0.977s1.216,1.582,1.216,2.793v3.984c0,0.566,0.047,1.091,0.142,1.572
		s0.236,0.96,0.425,1.436L140.465,33.018z M138.287,30.879c0.325,0,0.625-0.065,0.898-0.195s0.495-0.3,0.664-0.508v-1.65h-1.172
		c-0.521,0-0.9,0.127-1.138,0.381s-0.356,0.576-0.356,0.967c0,0.3,0.103,0.542,0.308,0.728S137.962,30.879,138.287,30.879z"/>
	<path fill="#FFFFFF" d="M150.963,25.371l-1.201-0.01c-0.378,0-0.687,0.063-0.928,0.19s-0.42,0.308-0.537,0.542v6.934h-3.301V22.461
		h3.105l0.117,1.553c0.222-0.554,0.515-0.983,0.879-1.289s0.791-0.459,1.279-0.459c0.156,0,0.315,0.012,0.479,0.034
		s0.306,0.051,0.43,0.083L150.963,25.371z"/>
	<path fill="#FFFFFF" d="M158.072,33.027V18.809h4.639c1.484,0,2.646,0.32,3.486,0.962s1.26,1.604,1.26,2.886
		c0,0.632-0.202,1.196-0.605,1.694s-0.935,0.867-1.592,1.108c0.859,0.183,1.535,0.603,2.026,1.26s0.737,1.423,0.737,2.295
		c0,1.302-0.422,2.297-1.265,2.983s-1.987,1.03-3.433,1.03H158.072z M159.996,24.854h3.115c0.716,0,1.299-0.197,1.748-0.591
		s0.674-0.942,0.674-1.646c0-0.769-0.242-1.343-0.728-1.724s-1.184-0.571-2.095-0.571h-2.715V24.854z M159.996,26.367v5.146h3.33
		c0.872,0,1.553-0.216,2.041-0.646c0.488-0.432,0.732-1.043,0.732-1.834c0-0.83-0.203-1.482-0.61-1.956s-1.033-0.71-1.88-0.71
		H159.996z"/>
	<path fill="#FFFFFF" d="M177.203,31.465c-0.332,0.566-0.759,1.003-1.279,1.309s-1.123,0.459-1.807,0.459
		c-1.152,0-2.051-0.368-2.695-1.104s-0.967-1.882-0.967-3.438v-6.23h1.924v6.25c0,1.126,0.166,1.901,0.498,2.324
		s0.85,0.635,1.553,0.635c0.684,0,1.248-0.139,1.694-0.415s0.783-0.669,1.011-1.177v-7.617h1.924v10.566h-1.729L177.203,31.465z"/>
	<path fill="#FFFFFF" d="M188.004,30.215c0-0.423-0.161-0.771-0.483-1.045s-0.933-0.511-1.831-0.713
		c-1.282-0.279-2.248-0.658-2.896-1.136s-0.972-1.13-0.972-1.955c0-0.858,0.364-1.589,1.094-2.193s1.68-0.907,2.852-0.907
		c1.23,0,2.209,0.315,2.935,0.947s1.072,1.399,1.04,2.305l-0.02,0.059h-1.836c0-0.462-0.193-0.877-0.581-1.245
		s-0.9-0.552-1.538-0.552c-0.684,0-1.191,0.149-1.523,0.449s-0.498,0.661-0.498,1.084c0,0.417,0.146,0.745,0.439,0.986
		s0.889,0.456,1.787,0.645c1.335,0.286,2.327,0.676,2.979,1.167s0.977,1.15,0.977,1.978c0,0.938-0.379,1.696-1.138,2.275
		s-1.75,0.869-2.974,0.869c-1.348,0-2.409-0.342-3.184-1.025s-1.143-1.481-1.104-2.393l0.02-0.059h1.836
		c0.032,0.681,0.286,1.178,0.762,1.492c0.476,0.313,1.032,0.471,1.67,0.471c0.684,0,1.219-0.139,1.606-0.415
		S188.004,30.664,188.004,30.215z"/>
	<path fill="#FFFFFF" d="M194.4,19.756h-1.924v-1.963h1.924V19.756z M194.4,33.027h-1.924V22.461h1.924V33.027z"/>
	<path fill="#FFFFFF" d="M199.078,22.461l0.137,1.572c0.352-0.56,0.793-0.994,1.323-1.304s1.135-0.464,1.812-0.464
		c1.14,0,2.021,0.334,2.646,1.001s0.938,1.697,0.938,3.091v6.67h-1.924v-6.631c0-0.931-0.184-1.592-0.552-1.982
		s-0.93-0.586-1.685-0.586c-0.554,0-1.043,0.134-1.47,0.4s-0.767,0.632-1.021,1.094v7.705h-1.924V22.461H199.078z"/>
	<path fill="#FFFFFF" d="M213.111,33.232c-1.472,0-2.642-0.49-3.511-1.47s-1.304-2.251-1.304-3.813v-0.43
		c0-1.504,0.447-2.756,1.343-3.755s1.955-1.499,3.179-1.499c1.426,0,2.503,0.43,3.232,1.289s1.094,2.005,1.094,3.438v1.201h-6.855
		l-0.029,0.049c0.02,1.013,0.276,1.846,0.771,2.498s1.188,0.979,2.08,0.979c0.651,0,1.223-0.093,1.714-0.278
		s0.916-0.441,1.274-0.767l0.752,1.251c-0.378,0.374-0.876,0.685-1.494,0.935C214.739,33.107,213.99,33.232,213.111,33.232z
		 M212.818,23.779c-0.645,0-1.194,0.271-1.65,0.812c-0.456,0.542-0.735,1.222-0.84,2.039l0.02,0.049h4.873v-0.253
		c0-0.753-0.202-1.382-0.605-1.889C214.212,24.032,213.612,23.779,212.818,23.779z"/>
	<path fill="#FFFFFF" d="M225.445,30.215c0-0.423-0.161-0.771-0.483-1.045s-0.933-0.511-1.831-0.713
		c-1.282-0.279-2.248-0.658-2.896-1.136s-0.972-1.13-0.972-1.955c0-0.858,0.364-1.589,1.094-2.193s1.68-0.907,2.852-0.907
		c1.23,0,2.209,0.315,2.935,0.947s1.072,1.399,1.04,2.305l-0.02,0.059h-1.836c0-0.462-0.193-0.877-0.581-1.245
		s-0.9-0.552-1.538-0.552c-0.684,0-1.191,0.149-1.523,0.449s-0.498,0.661-0.498,1.084c0,0.417,0.146,0.745,0.439,0.986
		s0.889,0.456,1.787,0.645c1.335,0.286,2.327,0.676,2.979,1.167s0.977,1.15,0.977,1.978c0,0.938-0.379,1.696-1.138,2.275
		s-1.75,0.869-2.974,0.869c-1.348,0-2.409-0.342-3.184-1.025s-1.143-1.481-1.104-2.393l0.02-0.059h1.836
		c0.032,0.681,0.286,1.178,0.762,1.492c0.476,0.313,1.032,0.471,1.67,0.471c0.684,0,1.219-0.139,1.606-0.415
		S225.445,30.664,225.445,30.215z"/>
	<path fill="#FFFFFF" d="M235.904,30.215c0-0.423-0.161-0.771-0.483-1.045s-0.933-0.511-1.831-0.713
		c-1.282-0.279-2.248-0.658-2.896-1.136s-0.972-1.13-0.972-1.955c0-0.858,0.364-1.589,1.094-2.193s1.68-0.907,2.852-0.907
		c1.23,0,2.209,0.315,2.935,0.947s1.072,1.399,1.04,2.305l-0.02,0.059h-1.836c0-0.462-0.193-0.877-0.581-1.245
		s-0.9-0.552-1.538-0.552c-0.684,0-1.191,0.149-1.523,0.449s-0.498,0.661-0.498,1.084c0,0.417,0.146,0.745,0.439,0.986
		s0.889,0.456,1.787,0.645c1.335,0.286,2.327,0.676,2.979,1.167s0.977,1.15,0.977,1.978c0,0.938-0.379,1.696-1.138,2.275
		s-1.75,0.869-2.974,0.869c-1.348,0-2.409-0.342-3.184-1.025s-1.143-1.481-1.104-2.393l0.02-0.059h1.836
		c0.032,0.681,0.286,1.178,0.762,1.492c0.476,0.313,1.032,0.471,1.67,0.471c0.684,0,1.219-0.139,1.606-0.415
		S235.904,30.664,235.904,30.215z"/>
</g>
</svg>
