<?xml version="1.0" encoding="utf-8"?>
<!-- Generator: Adobe Illustrator 16.0.0, SVG Export Plug-In . SVG Version: 6.00 Build 0)  -->
<!DOCTYPE svg PUBLIC "-//W3C//DTD SVG 1.1//EN" "http://www.w3.org/Graphics/SVG/1.1/DTD/svg11.dtd">
<svg version="1.1" id="Capa_1" xmlns="http://www.w3.org/2000/svg" xmlns:xlink="http://www.w3.org/1999/xlink" x="0px" y="0px"
	 width="160px" height="51px" viewBox="0 0 160 51" enable-background="new 0 0 160 51" xml:space="preserve">
<g>
	<path fill="#F18B15" d="M24.476,1.87C11.494,1.87,0.97,12.394,0.97,25.377c0,4.87,1.481,9.395,4.018,13.146
		c-0.243,0.875-1.658,5.979-2.186,8.074c-0.13,0.519,0.078,0.813,0.584,0.678c2.061-0.549,7.386-1.871,8.385-2.117
		c3.664,2.357,8.025,3.725,12.705,3.725c12.982,0,23.507-10.523,23.507-23.506C47.982,12.395,37.458,1.87,24.476,1.87z"/>
	
		<linearGradient id="SVGID_1_" gradientUnits="userSpaceOnUse" x1="309.7803" y1="-245.5156" x2="290.5275" y2="-226.2628" gradientTransform="matrix(1 0 0 -1 -271 -209)">
		<stop  offset="0.0794" style="stop-color:#F18B15;stop-opacity:0"/>
		<stop  offset="1" style="stop-color:#6F4302"/>
	</linearGradient>
	<polygon fill="url(#SVGID_1_)" points="11.935,24.856 29.668,44.939 47.547,27.749 39.069,19.328 23.128,35.318 	"/>
	<g>
		<g>
			<polygon id="SVGID_2_" fill="#FFFFFF" points="11.461,24.856 17.142,19.081 22.822,24.761 33.615,13.874 39.295,19.554 
				22.727,36.027 			"/>
		</g>
		<g>
			<defs>
				<polygon id="SVGID_3_" points="11.461,24.856 17.142,19.081 22.822,24.761 33.615,13.874 39.295,19.554 22.727,36.027 				"/>
			</defs>
			<clipPath id="SVGID_4_">
				<use xlink:href="#SVGID_3_"  overflow="visible"/>
			</clipPath>
			<rect x="-22.243" y="-28.919" clip-path="url(#SVGID_4_)" fill="none" width="166.062" height="117.397"/>
		</g>
	</g>
</g>
<g opacity="0.8">
	<path d="M65.12,28.566l0.106,0.564h0.064l0.107-0.521l3.077-11.34h3.769l-5.026,15.502H63.33L58.327,17.27h3.759L65.12,28.566z"/>
	<path d="M77.025,18.58h-3.61v-2.417h3.61V18.58z M77.025,32.773h-3.61V21.252h3.61V32.773z"/>
	<path d="M85.852,32.764c-0.1-0.186-0.189-0.392-0.271-0.619c-0.082-0.227-0.151-0.461-0.208-0.703
		c-0.341,0.477-0.753,0.854-1.234,1.135c-0.484,0.279-1.068,0.42-1.758,0.42c-1.093,0-1.982-0.314-2.667-0.947
		c-0.685-0.632-1.027-1.473-1.027-2.523c0-1.144,0.428-2.024,1.283-2.646c0.855-0.621,2.157-0.932,3.903-0.932h1.311v-0.82
		c0-0.49-0.117-0.866-0.347-1.129c-0.229-0.262-0.587-0.394-1.069-0.394c-0.412,0-0.72,0.098-0.922,0.293
		c-0.203,0.195-0.304,0.499-0.304,0.911l-3.482-0.011l-0.021-0.063c-0.049-1.051,0.387-1.929,1.31-2.635
		c0.922-0.707,2.144-1.06,3.663-1.06c1.42,0,2.571,0.355,3.455,1.065c0.885,0.71,1.326,1.725,1.326,3.045v4.344
		c0,0.618,0.051,1.188,0.154,1.715c0.103,0.526,0.257,1.047,0.463,1.565L85.852,32.764z M83.479,30.432
		c0.354,0,0.681-0.072,0.979-0.214c0.298-0.142,0.539-0.327,0.724-0.554v-1.799h-1.277c-0.568,0-0.981,0.139-1.24,0.416
		c-0.26,0.277-0.389,0.628-0.389,1.054c0,0.326,0.111,0.591,0.334,0.793C82.833,30.33,83.123,30.432,83.479,30.432z"/>
	<path d="M103.061,27.333l0.021,0.063c-0.071,1.817-0.608,3.205-1.613,4.164c-1.004,0.959-2.461,1.438-4.37,1.438
		c-1.918,0-3.476-0.589-4.675-1.768c-1.2-1.179-1.799-2.709-1.799-4.59v-3.237c0-1.874,0.577-3.402,1.729-4.584
		c1.153-1.182,2.653-1.773,4.5-1.773c1.959,0,3.457,0.493,4.492,1.48c1.037,0.987,1.622,2.389,1.758,4.206l-0.021,0.064h-3.503
		c-0.05-1.008-0.274-1.757-0.677-2.247c-0.4-0.49-1.084-0.734-2.049-0.734c-0.816,0-1.459,0.329-1.928,0.985
		c-0.469,0.657-0.703,1.517-0.703,2.582v3.26c0,1.071,0.256,1.938,0.768,2.598c0.511,0.66,1.214,0.99,2.107,0.99
		c0.866,0,1.48-0.23,1.842-0.692c0.362-0.461,0.568-1.195,0.619-2.204L103.061,27.333L103.061,27.333z"/>
	<path d="M110.066,32.997c-1.697,0-3.051-0.532-4.062-1.597c-1.011-1.065-1.518-2.399-1.518-4.004v-0.404
		c0-1.753,0.459-3.185,1.379-4.296c0.919-1.111,2.234-1.663,3.945-1.656c1.562,0,2.785,0.469,3.672,1.406
		c0.888,0.937,1.332,2.208,1.332,3.812v1.885h-6.58l-0.021,0.063c0.078,0.589,0.319,1.073,0.725,1.453
		c0.403,0.38,0.943,0.569,1.619,0.569c0.68,0,1.226-0.053,1.633-0.158c0.408-0.106,0.926-0.293,1.55-0.555l0.852,2.194
		c-0.504,0.369-1.155,0.676-1.954,0.92C111.838,32.875,110.98,32.997,110.066,32.997z M109.811,23.808
		c-0.519,0-0.908,0.185-1.166,0.554c-0.26,0.37-0.418,0.863-0.475,1.48l0.032,0.053h3.099v-0.276c0-0.583-0.121-1.029-0.363-1.342
		C110.697,23.964,110.32,23.808,109.811,23.808z"/>
	<path d="M120.107,32.773h-3.61v-16.61h3.61V32.773z"/>
	<path d="M129.223,31.41c-0.371,0.512-0.822,0.904-1.357,1.177c-0.536,0.272-1.143,0.41-1.815,0.41
		c-1.192,0-2.128-0.383-2.806-1.149c-0.678-0.768-1.018-1.957-1.018-3.568v-7.027h3.588v7.049c0,0.646,0.123,1.129,0.369,1.448
		c0.244,0.319,0.594,0.479,1.049,0.479c0.383,0,0.721-0.054,1.012-0.16c0.291-0.105,0.539-0.267,0.744-0.479v-8.337h3.6v11.521
		h-3.143L129.223,31.41z"/>
	<path d="M138.337,32.773h-3.61v-16.61h3.61V32.773z"/>
	<path d="M147.164,32.764c-0.1-0.186-0.189-0.392-0.271-0.619c-0.082-0.227-0.149-0.461-0.207-0.703
		c-0.342,0.477-0.754,0.854-1.235,1.135c-0.483,0.279-1.068,0.42-1.757,0.42c-1.094,0-1.982-0.314-2.668-0.947
		c-0.686-0.632-1.027-1.473-1.027-2.523c0-1.144,0.428-2.024,1.284-2.646c0.854-0.621,2.155-0.932,3.901-0.932h1.311v-0.82
		c0-0.49-0.115-0.866-0.348-1.129c-0.229-0.262-0.588-0.394-1.068-0.394c-0.412,0-0.719,0.098-0.922,0.293
		c-0.202,0.195-0.303,0.499-0.303,0.911l-3.482-0.011l-0.021-0.063c-0.051-1.051,0.387-1.929,1.311-2.635
		c0.923-0.707,2.145-1.06,3.663-1.06c1.42,0,2.571,0.355,3.454,1.065c0.885,0.71,1.326,1.725,1.326,3.045v4.344
		c0,0.618,0.051,1.188,0.153,1.715c0.104,0.524,0.257,1.047,0.464,1.565L147.164,32.764z M144.789,30.432
		c0.355,0,0.682-0.072,0.979-0.214c0.299-0.142,0.539-0.327,0.726-0.554v-1.799h-1.278c-0.566,0-0.98,0.139-1.24,0.416
		c-0.259,0.277-0.388,0.628-0.388,1.054c0,0.326,0.11,0.591,0.335,0.793S144.436,30.432,144.789,30.432z"/>
	<path d="M158.609,24.425l-1.31-0.01c-0.411,0-0.749,0.069-1.013,0.208c-0.264,0.138-0.457,0.335-0.585,0.591v7.56h-3.601V21.252
		h3.387l0.129,1.693c0.24-0.604,0.561-1.072,0.958-1.406c0.397-0.333,0.862-0.5,1.396-0.5c0.17,0,0.344,0.013,0.521,0.038
		c0.177,0.025,0.333,0.055,0.468,0.091L158.609,24.425z"/>
</g>
</svg>
