<?xml version="1.0" encoding="utf-8"?>
<!-- Generator: Adobe Illustrator 16.0.0, SVG Export Plug-In . SVG Version: 6.00 Build 0)  -->
<!DOCTYPE svg PUBLIC "-//W3C//DTD SVG 1.1//EN" "http://www.w3.org/Graphics/SVG/1.1/DTD/svg11.dtd">
<svg version="1.1" id="Layer_1" xmlns="http://www.w3.org/2000/svg" xmlns:xlink="http://www.w3.org/1999/xlink" x="0px" y="0px"
	 width="300px" height="300px" viewBox="0 0 300 300" enable-background="new 0 0 300 300" xml:space="preserve">
<g>
	<g>
		<rect x="199.412" y="35.294" fill="#4ABFEE" width="14.117" height="21.177"/>
		<path fill="#1B96D3" d="M213.529,59.971h-14.117c-1.933,0-3.5-1.567-3.5-3.5V35.294c0-1.933,1.567-3.5,3.5-3.5h14.117
			c1.933,0,3.5,1.567,3.5,3.5v21.177C217.029,58.404,215.462,59.971,213.529,59.971z M202.912,52.971h7.117V38.794h-7.117V52.971z"
			/>
	</g>
	<g>
		<rect x="227.646" y="7.059" fill="#4ABFEE" width="14.118" height="49.412"/>
		<path fill="#1B96D3" d="M241.765,59.971h-14.118c-1.933,0-3.5-1.567-3.5-3.5V7.059c0-1.933,1.567-3.5,3.5-3.5h14.118
			c1.933,0,3.5,1.567,3.5,3.5v49.412C245.265,58.404,243.697,59.971,241.765,59.971z M231.146,52.971h7.118V10.559h-7.118V52.971z"
			/>
	</g>
	<g>
		<rect x="255.883" y="24.706" fill="#4ABFEE" width="14.117" height="31.765"/>
		<path fill="#1B96D3" d="M270,59.971h-14.117c-1.933,0-3.5-1.567-3.5-3.5V24.706c0-1.933,1.567-3.5,3.5-3.5H270
			c1.933,0,3.5,1.567,3.5,3.5v31.765C273.5,58.404,271.933,59.971,270,59.971z M259.383,52.971h7.117V28.206h-7.117V52.971z"/>
	</g>
</g>
<g>
	<path fill="#B0B0B0" d="M273.529,74.088h-88.235c-1.933,0-3.5-1.567-3.5-3.5V3.529c0-1.933,1.567-3.5,3.5-3.5s3.5,1.567,3.5,3.5
		v63.559h84.735c1.933,0,3.5,1.567,3.5,3.5S275.462,74.088,273.529,74.088z"/>
</g>
<g>
	<circle fill="#4ABFEE" cx="68.824" cy="77.647" r="42.353"/>
	<path fill="#1B96D3" d="M68.824,123.5c-25.284,0-45.853-20.57-45.853-45.853S43.54,31.794,68.824,31.794
		c25.283,0,45.853,20.57,45.853,45.853S94.107,123.5,68.824,123.5z M68.824,38.794c-21.424,0-38.853,17.429-38.853,38.853
		S47.4,116.5,68.824,116.5c21.423,0,38.853-17.429,38.853-38.853S90.247,38.794,68.824,38.794z"/>
</g>
<g>
	<path fill="#48BC97" d="M106.588,36.353L68.824,74.118V21.882C83.294,21.882,96.706,27.176,106.588,36.353z"/>
	<path fill="#1B96D3" d="M68.823,77.618c-0.451,0-0.905-0.087-1.338-0.267c-1.308-0.542-2.161-1.818-2.161-3.233V21.882
		c0-1.933,1.567-3.5,3.5-3.5c15.19,0,29.448,5.471,40.146,15.406c0.696,0.647,1.1,1.55,1.118,2.5
		c0.018,0.951-0.353,1.868-1.024,2.54L71.299,76.593C70.629,77.262,69.734,77.618,68.823,77.618z M72.324,25.492v40.176
		l29.126-29.126C93.29,30.019,83.16,26.174,72.324,25.492z"/>
</g>
<g>
	<g>
		<polyline fill="#C0E7F9" points="58.235,201.529 135.882,268.235 192.354,268.235 270,201.529 		"/>
		<path fill="#1B96D3" d="M192.354,271.735h-56.471c-0.837,0-1.646-0.3-2.281-0.845l-77.647-66.706
			c-1.466-1.26-1.634-3.47-0.374-4.937c1.259-1.467,3.469-1.633,4.936-0.374l76.663,65.861h53.877l76.662-65.861
			c1.47-1.261,3.677-1.092,4.937,0.374c1.259,1.467,1.092,3.677-0.375,4.937l-77.646,66.706
			C193.999,271.436,193.19,271.735,192.354,271.735z"/>
	</g>
	<g>
		
			<path fill="#C0E7F9" stroke="#1B96D3" stroke-width="7" stroke-linecap="round" stroke-linejoin="round" stroke-miterlimit="10" d="
			M164.117,120"/>
	</g>
</g>
<g>
	<polygon fill="#D59B3D" points="164.117,84.706 58.235,166.235 135.882,232.941 192.354,232.941 270,166.235 	"/>
	<path fill="#C68D2D" d="M192.354,236.441h-56.471c-0.837,0-1.646-0.3-2.281-0.845l-77.647-66.706
		c-0.799-0.687-1.246-1.696-1.218-2.749c0.028-1.053,0.529-2.037,1.363-2.68l105.881-81.529c1.26-0.97,3.012-0.97,4.271,0
		l105.883,81.529c0.834,0.643,1.335,1.627,1.363,2.68s-0.419,2.062-1.219,2.749l-77.646,66.706
		C193.999,236.142,193.19,236.441,192.354,236.441z M137.179,229.441h53.877l73.399-63.058l-100.339-77.26l-100.338,77.26
		L137.179,229.441z"/>
</g>
<g>
	<g>
		<g>
			<polyline fill="#FFFFFF" points="90,268.235 90,84.706 238.235,84.706 238.235,268.235 			"/>
			<path fill="#898989" d="M238.235,271.735c-1.933,0-3.5-1.567-3.5-3.5V88.206H93.5v180.029c0,1.933-1.567,3.5-3.5,3.5
				s-3.5-1.567-3.5-3.5V84.706c0-1.933,1.567-3.5,3.5-3.5h148.235c1.933,0,3.5,1.567,3.5,3.5v183.529
				C241.735,270.168,240.168,271.735,238.235,271.735z"/>
		</g>
	</g>
</g>
<g>
	<path fill="#EAAE4E" d="M135.882,232.941l-73.059,61.765c-0.706-0.353-1.412-1.06-1.765-1.765
		c-1.765-1.766-2.823-4.235-2.823-7.059V166.235L135.882,232.941z"/>
	<path fill="#C68D2D" d="M62.823,298.206c-0.532,0-1.067-0.121-1.563-0.368c-1.206-0.603-2.303-1.619-3.027-2.786
		c-2.259-2.444-3.498-5.681-3.498-9.169V166.235c0-1.367,0.796-2.61,2.039-3.181c1.242-0.57,2.704-0.365,3.742,0.525l77.647,66.706
		c0.778,0.669,1.223,1.644,1.219,2.669s-0.458,1.997-1.24,2.659l-73.059,61.765C64.438,297.924,63.634,298.206,62.823,298.206z
		 M61.735,173.856v112.026c0,1.531,0.465,2.941,1.321,4.043l67.43-57.006L61.735,173.856z"/>
</g>
<g>
	<path fill="#EAAE4E" d="M270,166.235v119.647c0,2.823-1.059,4.941-2.471,7.059c-0.705,0.705-1.412,1.412-2.117,1.765
		l-73.059-61.765L270,166.235z"/>
	<path fill="#C68D2D" d="M265.413,298.206c-0.812,0-1.615-0.281-2.261-0.827l-73.059-61.765c-0.783-0.662-1.236-1.634-1.24-2.659
		s0.441-2,1.22-2.669l77.646-66.706c1.035-0.89,2.495-1.097,3.741-0.525c1.242,0.57,2.039,1.813,2.039,3.181v119.647
		c0,3.89-1.546,6.732-3.059,9.001c-0.128,0.191-0.274,0.37-0.438,0.533c-0.851,0.85-1.813,1.813-3.026,2.42
		C266.481,298.085,265.945,298.206,265.413,298.206z M197.749,232.92l67.506,57.07c0.782-1.332,1.245-2.576,1.245-4.107V173.856
		L197.749,232.92z"/>
</g>
<g>
	<g>
		<g>
			<path fill="#F6BF59" d="M192.354,232.941l73.059,61.765c-1.766,1.059-3.529,1.765-6,1.765H68.824c-2.118,0-4.235-0.706-6-1.765
				l73.059-61.765H192.354z"/>
			<path fill="#C68D2D" d="M259.412,299.971H68.824c-2.597,0-5.368-0.804-7.8-2.264c-0.969-0.581-1.597-1.593-1.688-2.719
				c-0.091-1.126,0.367-2.226,1.229-2.955l73.059-61.765c0.632-0.534,1.433-0.827,2.26-0.827h56.471c0.827,0,1.628,0.293,2.26,0.827
				l73.059,61.765c0.862,0.729,1.32,1.83,1.229,2.955c-0.091,1.126-0.72,2.139-1.688,2.72
				C265.455,298.762,262.98,299.971,259.412,299.971z M70.298,292.971h187.641l-66.866-56.529h-53.909L70.298,292.971z"/>
		</g>
	</g>
</g>
<g>
	<g>
		<g>
			<path fill="#898989" d="M206.471,179.971h-84.706c-1.933,0-3.5-1.567-3.5-3.5s1.567-3.5,3.5-3.5h84.706
				c1.933,0,3.5,1.567,3.5,3.5S208.403,179.971,206.471,179.971z"/>
		</g>
	</g>
</g>
<g>
	<g>
		<g>
			<path fill="#898989" d="M195.883,197.617h-63.53c-1.933,0-3.5-1.567-3.5-3.5s1.567-3.5,3.5-3.5h63.53c1.933,0,3.5,1.567,3.5,3.5
				S197.815,197.617,195.883,197.617z"/>
		</g>
	</g>
</g>
<g>
	<path fill="#48BC97" d="M167.646,148.206H150v-7h17.646c1.963,0,3.56-1.597,3.56-3.559s-1.597-3.559-3.56-3.559h-7.059
		c-5.822,0-10.559-4.737-10.559-10.559s4.736-10.559,10.559-10.559h17.647v7h-17.647c-1.962,0-3.559,1.596-3.559,3.559
		s1.597,3.559,3.559,3.559h7.059c5.822,0,10.56,4.736,10.56,10.559S173.469,148.206,167.646,148.206z"/>
</g>
<g>
	<rect x="160.617" y="106.882" fill="#48BC97" width="7" height="7.059"/>
</g>
<g>
	<rect x="160.617" y="147.235" fill="#48BC97" width="7" height="7.059"/>
</g>
<g>
	<path fill="#48BC97" d="M128.824,148.206h-17.647v-7h17.647c1.962,0,3.559-1.597,3.559-3.559s-1.596-3.559-3.559-3.559h-7.059
		c-5.822,0-10.559-4.737-10.559-10.559s4.736-10.559,10.559-10.559h17.647v7h-17.647c-1.962,0-3.559,1.596-3.559,3.559
		s1.596,3.559,3.559,3.559h7.059c5.822,0,10.559,4.736,10.559,10.559S134.646,148.206,128.824,148.206z"/>
</g>
<g>
	<rect x="121.794" y="106.882" fill="#48BC97" width="7" height="7.059"/>
</g>
<g>
	<rect x="121.794" y="147.235" fill="#48BC97" width="7" height="7.059"/>
</g>
<g>
	<path fill="#48BC97" d="M206.471,148.206h-17.646v-7h17.646c1.962,0,3.559-1.597,3.559-3.559s-1.597-3.559-3.559-3.559h-7.059
		c-5.822,0-10.559-4.737-10.559-10.559s4.736-10.559,10.559-10.559h17.646v7h-17.646c-1.962,0-3.559,1.596-3.559,3.559
		s1.597,3.559,3.559,3.559h7.059c5.822,0,10.559,4.736,10.559,10.559S212.293,148.206,206.471,148.206z"/>
</g>
<g>
	<rect x="199.441" y="106.882" fill="#48BC97" width="7" height="7.059"/>
</g>
<g>
	<rect x="199.441" y="147.235" fill="#48BC97" width="7" height="7.059"/>
</g>
</svg>
