<?xml version="1.0" encoding="utf-8"?>
<!-- Generator: Adobe Illustrator 16.0.0, SVG Export Plug-In . SVG Version: 6.00 Build 0)  -->
<!DOCTYPE svg PUBLIC "-//W3C//DTD SVG 1.1//EN" "http://www.w3.org/Graphics/SVG/1.1/DTD/svg11.dtd">
<svg version="1.1" id="Capa_1" xmlns="http://www.w3.org/2000/svg" xmlns:xlink="http://www.w3.org/1999/xlink" x="0px" y="0px"
	 width="512px" height="512px" viewBox="0 0 512 512" enable-background="new 0 0 512 512" xml:space="preserve">
<g>
</g>
<path fill="#C8A100" d="M303.709,189.723h-19.04c-45.537,0-82.445,40.685-82.445,90.857c0,20.781,3.99,36.4,14.641,51.709
	l-6.019,35.416h21.889l16.084-6.641c11.733,7.084,22.51,10.385,35.851,10.385h19.04"/>
<path fill="#F5C400" d="M260.828,358.207c12.492,8.4,27.174,13.242,42.881,13.242c45.536,0,82.444-40.686,82.444-90.869
	c0-50.172-36.908-90.857-82.444-90.857c-45.535,0-82.443,40.685-82.443,90.857c0,20.225,5.996,38.908,16.134,54.006l-4.666,33.119
	L260.828,358.207z"/>
<g>
	<defs>
		<path id="SVGID_1_" d="M238.777,336.24c-9.913-13.941-17.488-32.783-17.488-57.814c0-67.032,63.374-88.703,63.374-88.703
			c-45.529,0-82.439,40.681-82.439,90.863c0,21.281,3.522,36.217,14.641,51.703l-6.019,35.416h21.889
			C232.734,367.705,234.234,353.268,238.777,336.24z"/>
	</defs>
	<clipPath id="SVGID_2_">
		<use xlink:href="#SVGID_1_"  overflow="visible"/>
	</clipPath>
	<g clip-path="url(#SVGID_2_)">
		
			<line fill="none" stroke="#E1B500" stroke-width="9" stroke-linecap="round" stroke-linejoin="round" stroke-miterlimit="10" x1="271.26" y1="200.964" x2="201.085" y2="200.964"/>
		
			<line fill="none" stroke="#E1B500" stroke-width="9" stroke-linecap="round" stroke-linejoin="round" stroke-miterlimit="10" x1="271.26" y1="215.5" x2="201.085" y2="215.5"/>
		
			<line fill="none" stroke="#E1B500" stroke-width="9" stroke-linecap="round" stroke-linejoin="round" stroke-miterlimit="10" x1="271.26" y1="230.036" x2="201.085" y2="230.036"/>
		
			<line fill="none" stroke="#E1B500" stroke-width="9" stroke-linecap="round" stroke-linejoin="round" stroke-miterlimit="10" x1="271.26" y1="244.572" x2="201.085" y2="244.572"/>
		
			<line fill="none" stroke="#E1B500" stroke-width="9" stroke-linecap="round" stroke-linejoin="round" stroke-miterlimit="10" x1="271.26" y1="259.109" x2="201.085" y2="259.109"/>
		
			<line fill="none" stroke="#E1B500" stroke-width="9" stroke-linecap="round" stroke-linejoin="round" stroke-miterlimit="10" x1="271.261" y1="273.645" x2="201.085" y2="273.645"/>
		
			<line fill="none" stroke="#E1B500" stroke-width="9" stroke-linecap="round" stroke-linejoin="round" stroke-miterlimit="10" x1="271.26" y1="288.181" x2="201.085" y2="288.181"/>
		
			<line fill="none" stroke="#E1B500" stroke-width="9" stroke-linecap="round" stroke-linejoin="round" stroke-miterlimit="10" x1="271.26" y1="302.717" x2="201.085" y2="302.717"/>
		
			<line fill="none" stroke="#E1B500" stroke-width="9" stroke-linecap="round" stroke-linejoin="round" stroke-miterlimit="10" x1="271.26" y1="317.253" x2="201.085" y2="317.253"/>
		
			<line fill="none" stroke="#E1B500" stroke-width="9" stroke-linecap="round" stroke-linejoin="round" stroke-miterlimit="10" x1="271.26" y1="331.789" x2="201.085" y2="331.789"/>
		
			<line fill="none" stroke="#E1B500" stroke-width="9" stroke-linecap="round" stroke-linejoin="round" stroke-miterlimit="10" x1="271.26" y1="346.325" x2="201.085" y2="346.325"/>
		
			<line fill="none" stroke="#E1B500" stroke-width="9" stroke-linecap="round" stroke-linejoin="round" stroke-miterlimit="10" x1="271.26" y1="360.861" x2="201.085" y2="360.861"/>
	</g>
</g>
<path fill="#C8A100" d="M143.671,136.599h13.25c31.687,0,57.369-28.311,57.369-63.231c0-34.912-25.682-63.222-57.369-63.222h-13.25"
	/>
<path fill="#F5C400" d="M86.302,73.367c0,14.143,4.212,27.199,11.328,37.732c2.197,3.25-7.325,17.895-4.615,20.622
	c2.712,2.726,17.655-6.466,20.803-4.347c8.696,5.852,18.917,9.225,29.853,9.225c31.687,0,57.369-28.311,57.369-63.231
	c0-34.912-25.683-63.222-57.369-63.222C111.985,10.146,86.302,38.456,86.302,73.367z"/>
<g>
	<defs>
		<path id="SVGID_3_" d="M156.923,10.145c31.683,0,57.367,28.308,57.367,63.228c0,34.918-25.684,63.225-57.367,63.225
			c0,0,44.099-14.348,44.099-64.728C201.022,25.225,156.923,10.145,156.923,10.145z"/>
	</defs>
	<clipPath id="SVGID_4_">
		<use xlink:href="#SVGID_3_"  overflow="visible"/>
	</clipPath>
	<g clip-path="url(#SVGID_4_)">
		
			<line fill="none" stroke="#E1B500" stroke-width="9" stroke-linecap="round" stroke-linejoin="round" stroke-miterlimit="10" x1="166.25" y1="17.967" x2="215.083" y2="17.967"/>
		
			<line fill="none" stroke="#E1B500" stroke-width="9" stroke-linecap="round" stroke-linejoin="round" stroke-miterlimit="10" x1="166.25" y1="28.082" x2="215.082" y2="28.082"/>
		
			<line fill="none" stroke="#E1B500" stroke-width="9" stroke-linecap="round" stroke-linejoin="round" stroke-miterlimit="10" x1="166.25" y1="38.197" x2="215.083" y2="38.197"/>
		
			<line fill="none" stroke="#E1B500" stroke-width="9" stroke-linecap="round" stroke-linejoin="round" stroke-miterlimit="10" x1="166.25" y1="48.312" x2="215.082" y2="48.312"/>
		
			<line fill="none" stroke="#E1B500" stroke-width="9" stroke-linecap="round" stroke-linejoin="round" stroke-miterlimit="10" x1="166.25" y1="58.427" x2="215.082" y2="58.427"/>
		
			<line fill="none" stroke="#E1B500" stroke-width="9" stroke-linecap="round" stroke-linejoin="round" stroke-miterlimit="10" x1="166.251" y1="68.542" x2="215.083" y2="68.542"/>
		
			<line fill="none" stroke="#E1B500" stroke-width="9" stroke-linecap="round" stroke-linejoin="round" stroke-miterlimit="10" x1="166.251" y1="78.656" x2="215.082" y2="78.656"/>
		
			<line fill="none" stroke="#E1B500" stroke-width="9" stroke-linecap="round" stroke-linejoin="round" stroke-miterlimit="10" x1="166.25" y1="88.771" x2="215.082" y2="88.771"/>
		
			<line fill="none" stroke="#E1B500" stroke-width="9" stroke-linecap="round" stroke-linejoin="round" stroke-miterlimit="10" x1="166.25" y1="98.886" x2="215.082" y2="98.886"/>
		
			<line fill="none" stroke="#E1B500" stroke-width="9" stroke-linecap="round" stroke-linejoin="round" stroke-miterlimit="10" x1="166.25" y1="109" x2="215.083" y2="109"/>
		
			<line fill="none" stroke="#E1B500" stroke-width="9" stroke-linecap="round" stroke-linejoin="round" stroke-miterlimit="10" x1="166.25" y1="119.116" x2="215.083" y2="119.116"/>
		
			<line fill="none" stroke="#E1B500" stroke-width="9" stroke-linecap="round" stroke-linejoin="round" stroke-miterlimit="10" x1="166.25" y1="129.23" x2="215.083" y2="129.23"/>
	</g>
</g>
<polygon fill="#C8A100" points="254.599,284.189 274.176,259.588 294.847,282.863 332.062,236.496 352.733,259.768 295.59,329.941 
	"/>
<path fill="#C8A100" d="M417.15,46.173h-10.269c-24.558,0-44.462,21.941-44.462,48.998c0,11.208,2.153,19.63,7.896,27.886
	l-3.246,19.1h11.804l8.674-3.581c6.327,3.819,12.14,5.599,19.334,5.599h10.269"/>
<path fill="#F5C400" d="M394.025,137.034c6.737,4.531,14.654,7.141,23.125,7.141c24.557,0,44.461-21.94,44.461-49.004
	c0-27.057-19.904-48.998-44.461-48.998s-44.461,21.941-44.461,48.998c0,10.908,3.232,20.982,8.701,29.125l-2.517,17.86
	L394.025,137.034z"/>
<g>
	<defs>
		<path id="SVGID_5_" d="M382.134,125.188c-5.346-7.518-9.432-17.679-9.432-31.177c0-36.15,34.177-47.837,34.177-47.837
			c-24.554,0-44.459,21.938-44.459,49.001c0,11.476,1.9,19.532,7.896,27.883l-3.246,19.1h11.804
			C378.874,142.157,379.683,134.371,382.134,125.188z"/>
	</defs>
	<clipPath id="SVGID_6_">
		<use xlink:href="#SVGID_5_"  overflow="visible"/>
	</clipPath>
	<g clip-path="url(#SVGID_6_)">
		
			<line fill="none" stroke="#E1B500" stroke-width="9" stroke-linecap="round" stroke-linejoin="round" stroke-miterlimit="10" x1="399.651" y1="52.236" x2="361.807" y2="52.236"/>
		
			<line fill="none" stroke="#E1B500" stroke-width="9" stroke-linecap="round" stroke-linejoin="round" stroke-miterlimit="10" x1="399.651" y1="60.075" x2="361.807" y2="60.075"/>
		
			<line fill="none" stroke="#E1B500" stroke-width="9" stroke-linecap="round" stroke-linejoin="round" stroke-miterlimit="10" x1="399.651" y1="67.914" x2="361.807" y2="67.914"/>
		
			<line fill="none" stroke="#E1B500" stroke-width="9" stroke-linecap="round" stroke-linejoin="round" stroke-miterlimit="10" x1="399.651" y1="75.753" x2="361.807" y2="75.753"/>
		
			<line fill="none" stroke="#E1B500" stroke-width="9" stroke-linecap="round" stroke-linejoin="round" stroke-miterlimit="10" x1="399.651" y1="83.592" x2="361.807" y2="83.592"/>
		
			<line fill="none" stroke="#E1B500" stroke-width="9" stroke-linecap="round" stroke-linejoin="round" stroke-miterlimit="10" x1="399.651" y1="91.432" x2="361.808" y2="91.432"/>
		
			<line fill="none" stroke="#E1B500" stroke-width="9" stroke-linecap="round" stroke-linejoin="round" stroke-miterlimit="10" x1="399.651" y1="99.271" x2="361.807" y2="99.271"/>
		
			<line fill="none" stroke="#E1B500" stroke-width="9" stroke-linecap="round" stroke-linejoin="round" stroke-miterlimit="10" x1="399.651" y1="107.109" x2="361.807" y2="107.109"/>
		
			<line fill="none" stroke="#E1B500" stroke-width="9" stroke-linecap="round" stroke-linejoin="round" stroke-miterlimit="10" x1="399.651" y1="114.948" x2="361.807" y2="114.948"/>
		
			<line fill="none" stroke="#E1B500" stroke-width="9" stroke-linecap="round" stroke-linejoin="round" stroke-miterlimit="10" x1="399.651" y1="122.787" x2="361.807" y2="122.787"/>
		
			<line fill="none" stroke="#E1B500" stroke-width="9" stroke-linecap="round" stroke-linejoin="round" stroke-miterlimit="10" x1="399.651" y1="130.626" x2="361.807" y2="130.626"/>
		
			<line fill="none" stroke="#E1B500" stroke-width="9" stroke-linecap="round" stroke-linejoin="round" stroke-miterlimit="10" x1="399.651" y1="138.465" x2="361.807" y2="138.465"/>
	</g>
</g>
<polygon fill="#C8A100" points="390.666,97.118 401.223,83.851 412.37,96.403 432.441,71.397 443.589,83.948 412.771,121.791 "/>
<polygon fill="#C8A100" points="106.399,74.631 121.04,56.235 136.499,73.641 164.329,38.965 179.788,56.37 137.054,108.847 "/>
<path fill="#C8A100" d="M104.803,460.949h11.695c27.967,0,50.635-24.988,50.635-55.809c0-30.814-22.668-55.803-50.635-55.803
	h-11.695"/>
<path fill="#F5C400" d="M54.168,405.141c0,12.48,3.718,24.004,9.999,33.303c1.938,2.867-6.466,15.793-4.072,18.201
	c2.392,2.406,15.581-5.707,18.36-3.838c7.676,5.166,16.696,8.143,26.349,8.143c27.968,0,50.635-24.988,50.635-55.809
	c0-30.814-22.667-55.803-50.635-55.803C76.835,349.338,54.168,374.326,54.168,405.141z"/>
<g>
	<defs>
		<path id="SVGID_7_" d="M116.5,349.338c27.964,0,50.633,24.984,50.633,55.805s-22.669,55.805-50.633,55.805
			c0,0,38.922-12.664,38.922-57.131C155.423,362.648,116.5,349.338,116.5,349.338z"/>
	</defs>
	<clipPath id="SVGID_8_">
		<use xlink:href="#SVGID_7_"  overflow="visible"/>
	</clipPath>
	<g clip-path="url(#SVGID_8_)">
		
			<line fill="none" stroke="#E1B500" stroke-width="9" stroke-linecap="round" stroke-linejoin="round" stroke-miterlimit="10" x1="124.733" y1="356.242" x2="167.833" y2="356.242"/>
		
			<line fill="none" stroke="#E1B500" stroke-width="9" stroke-linecap="round" stroke-linejoin="round" stroke-miterlimit="10" x1="124.733" y1="365.17" x2="167.833" y2="365.17"/>
		
			<line fill="none" stroke="#E1B500" stroke-width="9" stroke-linecap="round" stroke-linejoin="round" stroke-miterlimit="10" x1="124.733" y1="374.098" x2="167.833" y2="374.098"/>
		
			<line fill="none" stroke="#E1B500" stroke-width="9" stroke-linecap="round" stroke-linejoin="round" stroke-miterlimit="10" x1="124.733" y1="383.024" x2="167.833" y2="383.024"/>
		
			<line fill="none" stroke="#E1B500" stroke-width="9" stroke-linecap="round" stroke-linejoin="round" stroke-miterlimit="10" x1="124.733" y1="391.952" x2="167.833" y2="391.952"/>
		
			<line fill="none" stroke="#E1B500" stroke-width="9" stroke-linecap="round" stroke-linejoin="round" stroke-miterlimit="10" x1="124.733" y1="400.88" x2="167.833" y2="400.88"/>
		
			<line fill="none" stroke="#E1B500" stroke-width="9" stroke-linecap="round" stroke-linejoin="round" stroke-miterlimit="10" x1="124.733" y1="409.808" x2="167.833" y2="409.808"/>
		
			<line fill="none" stroke="#E1B500" stroke-width="9" stroke-linecap="round" stroke-linejoin="round" stroke-miterlimit="10" x1="124.733" y1="418.735" x2="167.833" y2="418.735"/>
		
			<line fill="none" stroke="#E1B500" stroke-width="9" stroke-linecap="round" stroke-linejoin="round" stroke-miterlimit="10" x1="124.733" y1="427.662" x2="167.833" y2="427.662"/>
		
			<line fill="none" stroke="#E1B500" stroke-width="9" stroke-linecap="round" stroke-linejoin="round" stroke-miterlimit="10" x1="124.733" y1="436.59" x2="167.833" y2="436.59"/>
		
			<line fill="none" stroke="#E1B500" stroke-width="9" stroke-linecap="round" stroke-linejoin="round" stroke-miterlimit="10" x1="124.733" y1="445.518" x2="167.833" y2="445.518"/>
		
			<line fill="none" stroke="#E1B500" stroke-width="9" stroke-linecap="round" stroke-linejoin="round" stroke-miterlimit="10" x1="124.733" y1="454.445" x2="167.833" y2="454.445"/>
	</g>
</g>
<polygon fill="#C8A100" points="71.907,406.256 84.829,390.02 98.474,405.381 123.036,374.775 136.682,390.137 98.963,436.455 "/>
<path fill="#C8A100" d="M466.944,351.926h6.969c16.666,0,30.174-14.891,30.174-33.258c0-18.363-13.508-33.252-30.174-33.252h-6.969"
	/>
<path fill="#F5C400" d="M436.77,318.387c0,7.438,2.215,14.307,5.957,19.846c1.156,1.709-3.853,9.412-2.426,10.848
	c1.426,1.434,9.285-3.402,10.94-2.287c4.574,3.078,9.95,4.852,15.701,4.852c16.667,0,30.175-14.891,30.175-33.258
	c0-18.361-13.508-33.252-30.175-33.252C450.277,285.135,436.77,300.025,436.77,318.387z"/>
<g>
	<defs>
		<path id="SVGID_9_" d="M473.914,285.416c16.664,0,30.173,14.889,30.173,33.254c0,18.367-13.509,33.254-30.173,33.254
			c0,0,23.194-7.545,23.194-34.043C497.108,293.348,473.914,285.416,473.914,285.416z"/>
	</defs>
	<clipPath id="SVGID_10_">
		<use xlink:href="#SVGID_9_"  overflow="visible"/>
	</clipPath>
	<g clip-path="url(#SVGID_10_)">
		
			<line fill="none" stroke="#E1B500" stroke-width="9" stroke-linecap="round" stroke-linejoin="round" stroke-miterlimit="10" x1="478.82" y1="289.529" x2="504.505" y2="289.529"/>
		
			<line fill="none" stroke="#E1B500" stroke-width="9" stroke-linecap="round" stroke-linejoin="round" stroke-miterlimit="10" x1="478.82" y1="294.85" x2="504.505" y2="294.85"/>
		
			<line fill="none" stroke="#E1B500" stroke-width="9" stroke-linecap="round" stroke-linejoin="round" stroke-miterlimit="10" x1="478.82" y1="300.17" x2="504.505" y2="300.17"/>
		
			<line fill="none" stroke="#E1B500" stroke-width="9" stroke-linecap="round" stroke-linejoin="round" stroke-miterlimit="10" x1="478.82" y1="305.489" x2="504.505" y2="305.489"/>
		
			<line fill="none" stroke="#E1B500" stroke-width="9" stroke-linecap="round" stroke-linejoin="round" stroke-miterlimit="10" x1="478.82" y1="310.81" x2="504.505" y2="310.81"/>
		
			<line fill="none" stroke="#E1B500" stroke-width="9" stroke-linecap="round" stroke-linejoin="round" stroke-miterlimit="10" x1="478.821" y1="316.13" x2="504.505" y2="316.13"/>
		
			<line fill="none" stroke="#E1B500" stroke-width="9" stroke-linecap="round" stroke-linejoin="round" stroke-miterlimit="10" x1="478.82" y1="321.45" x2="504.505" y2="321.45"/>
		
			<line fill="none" stroke="#E1B500" stroke-width="9" stroke-linecap="round" stroke-linejoin="round" stroke-miterlimit="10" x1="478.82" y1="326.77" x2="504.505" y2="326.77"/>
		
			<line fill="none" stroke="#E1B500" stroke-width="9" stroke-linecap="round" stroke-linejoin="round" stroke-miterlimit="10" x1="478.82" y1="332.09" x2="504.505" y2="332.09"/>
		
			<line fill="none" stroke="#E1B500" stroke-width="9" stroke-linecap="round" stroke-linejoin="round" stroke-miterlimit="10" x1="478.82" y1="337.41" x2="504.505" y2="337.41"/>
		
			<line fill="none" stroke="#E1B500" stroke-width="9" stroke-linecap="round" stroke-linejoin="round" stroke-miterlimit="10" x1="478.82" y1="342.73" x2="504.505" y2="342.73"/>
		
			<line fill="none" stroke="#E1B500" stroke-width="9" stroke-linecap="round" stroke-linejoin="round" stroke-miterlimit="10" x1="478.82" y1="348.051" x2="504.505" y2="348.051"/>
	</g>
</g>
<polygon fill="#C8A100" points="447.34,319.053 455.041,309.377 463.171,318.531 477.809,300.293 485.939,309.447 463.463,337.049 
	"/>
<g>
	<g>
		<path fill="#B79300" d="M232.734,370.291h-21.889c-0.761,0-1.484-0.336-1.976-0.916c-0.492-0.582-0.701-1.352-0.574-2.104
			l5.855-34.449c-9.498-15.455-14.514-33.494-14.514-52.236c0-51.529,38.143-93.45,85.026-93.45h19.044
			c1.429,0,2.586,1.158,2.586,2.586c0,1.428-1.157,2.586-2.586,2.586h-19.044c-44.031,0-79.854,39.601-79.854,88.277
			c0,18.109,4.925,35.512,14.244,50.326c0.338,0.539,0.467,1.184,0.36,1.811l-5.506,32.396h18.826c1.428,0,2.586,1.158,2.586,2.586
			C235.321,369.135,234.163,370.291,232.734,370.291z"/>
	</g>
	<path fill="none" stroke="#B79300" stroke-width="6" stroke-linecap="round" stroke-linejoin="round" stroke-miterlimit="10" d="
		M303.707,371.447h-19.044c-14.912,0-26.853-4.201-35.717-8.961"/>
	<g>
		<path fill="#B79300" d="M303.707,374.033c-1.429,0-2.586-1.158-2.586-2.586c0-1.43,1.157-2.586,2.586-2.586
			c44.032,0,79.854-39.602,79.854-88.275c0-48.677-35.822-88.277-79.854-88.277c-1.429,0-2.586-1.158-2.586-2.586
			c0-1.428,1.157-2.586,2.586-2.586c46.884,0,85.026,41.921,85.026,93.45C388.733,332.113,350.591,374.033,303.707,374.033z"/>
	</g>
	<g>
		<path fill="#B79300" d="M232.735,370.291c-0.598,0-1.187-0.207-1.659-0.602c-0.681-0.568-1.022-1.447-0.905-2.326l4.341-32.451
			c-3.715-5.703-6.839-11.863-9.295-18.322c-0.507-1.336,0.164-2.83,1.499-3.336c1.333-0.508,2.829,0.164,3.336,1.498
			c2.436,6.408,5.566,12.502,9.304,18.111c0.349,0.523,0.495,1.154,0.411,1.777l-3.926,29.348l27.32-8.795
			c0.927-0.301,1.943-0.053,2.629,0.641c0.037,0.037,4.01,3.984,9.985,6.787c1.293,0.607,1.85,2.146,1.242,3.439
			c-0.604,1.295-2.146,1.852-3.439,1.244c-4.854-2.277-8.497-5.17-10.271-6.727l-29.78,9.59
			C233.268,370.25,233,370.291,232.735,370.291z"/>
	</g>
	<g>
		<path fill="#B79300" d="M223.865,305.91c-1.174,0-2.237-0.805-2.516-1.998c-1.772-7.578-2.67-15.428-2.67-23.326
			c0-34.006,16.833-65.361,43.931-81.831c1.224-0.742,2.813-0.353,3.554,0.867c0.741,1.221,0.354,2.811-0.866,3.553
			c-25.565,15.539-41.446,45.201-41.446,77.412c0,7.504,0.853,14.955,2.535,22.148c0.325,1.391-0.539,2.781-1.93,3.107
			C224.257,305.889,224.06,305.91,223.865,305.91z"/>
	</g>
</g>
<g>
	<g>
		<path fill="#B79300" d="M378.874,144.743H367.07c-0.763,0-1.484-0.336-1.977-0.917c-0.491-0.582-0.701-1.351-0.574-2.102
			l3.084-18.14c-5.087-8.437-7.77-18.236-7.77-28.41c0-28.445,21.104-51.587,47.045-51.587h10.271c1.429,0,2.586,1.158,2.586,2.586
			s-1.157,2.586-2.586,2.586h-10.271c-23.089,0-41.873,20.822-41.873,46.416c0,9.542,2.593,18.707,7.499,26.506
			c0.339,0.538,0.467,1.183,0.361,1.81l-2.733,16.08h8.741c1.429,0,2.586,1.158,2.586,2.586S380.303,144.743,378.874,144.743z"/>
	</g>
	<path fill="none" stroke="#B79300" stroke-width="6" stroke-linecap="round" stroke-linejoin="round" stroke-miterlimit="10" d="
		M417.15,144.174h-10.271c-8.042,0-14.481-2.265-19.262-4.833"/>
	<g>
		<path fill="#B79300" d="M417.15,146.761c-1.429,0-2.586-1.158-2.586-2.586c0-1.428,1.157-2.586,2.586-2.586
			c23.089,0,41.872-20.821,41.872-46.414c0-25.594-18.783-46.416-41.872-46.416c-1.429,0-2.586-1.158-2.586-2.586
			s1.157-2.586,2.586-2.586c25.94,0,47.044,23.142,47.044,51.587C464.194,123.619,443.091,146.761,417.15,146.761z"/>
	</g>
	<g>
		<path fill="#B79300" d="M378.874,144.743c-0.598,0-1.187-0.208-1.658-0.602c-0.682-0.569-1.023-1.448-0.905-2.328l2.284-17.064
			c-1.946-3.046-3.588-6.316-4.888-9.735c-0.507-1.335,0.164-2.829,1.499-3.336c1.337-0.509,2.828,0.164,3.336,1.499
			c1.28,3.368,2.928,6.575,4.896,9.53c0.348,0.523,0.494,1.154,0.411,1.777l-1.868,13.956l12.938-4.165
			c0.928-0.299,1.944-0.051,2.63,0.641c0.015,0.015,2.029,2.006,5.044,3.421c1.293,0.607,1.85,2.146,1.242,3.44
			c-0.606,1.293-2.146,1.85-3.439,1.242c-2.328-1.092-4.171-2.441-5.296-3.369l-15.433,4.968
			C379.407,144.702,379.14,144.743,378.874,144.743z"/>
	</g>
	<g>
		<path fill="#B79300" d="M374.09,110.023c-1.174,0-2.236-0.805-2.516-1.998c-0.978-4.179-1.472-8.503-1.472-12.851
			c0-18.752,9.298-36.052,24.266-45.148c1.219-0.743,2.81-0.354,3.552,0.867c0.742,1.221,0.354,2.812-0.867,3.553
			c-13.434,8.165-21.778,23.771-21.778,40.729c0,3.952,0.449,7.879,1.336,11.674c0.325,1.391-0.539,2.782-1.93,3.106
			C374.483,110.001,374.285,110.023,374.09,110.023z"/>
	</g>
</g>
<g>
	<g>
		<path fill="#B79300" d="M156.923,139.183h-13.25c-1.428,0-2.586-1.158-2.586-2.586s1.158-2.586,2.586-2.586h13.25
			c30.207,0,54.781-27.202,54.781-60.639c0-33.438-24.575-60.642-54.781-60.642h-13.25c-1.428,0-2.586-1.158-2.586-2.586
			s1.158-2.586,2.586-2.586h13.25c33.058,0,59.954,29.523,59.954,65.813C216.876,109.66,189.981,139.183,156.923,139.183z"/>
	</g>
	<g>
		<path fill="#B79300" d="M143.673,139.183L143.673,139.183c-10.712,0-21.186-3.126-30.362-9.049l-19.78,4.376
			c-0.856,0.187-1.751-0.069-2.376-0.686s-0.894-1.508-0.714-2.367l4.208-20.19C87.495,100.14,83.72,87.063,83.72,73.372
			c0-36.29,26.895-65.813,59.953-65.813c1.428,0,2.586,1.158,2.586,2.586s-1.158,2.586-2.586,2.586
			c-30.206,0-54.78,27.204-54.78,60.642c0,13.043,3.685,25.472,10.658,35.941c0.384,0.577,0.52,1.283,0.379,1.961l-3.609,17.321
			l16.941-3.748c0.692-0.152,1.415-0.016,2.002,0.379c8.54,5.747,18.364,8.784,28.409,8.784c1.428,0,2.586,1.158,2.586,2.586
			S145.101,139.183,143.673,139.183z"/>
	</g>
	<g>
		<path fill="#B79300" d="M189.946,113.333c-0.493,0-0.99-0.141-1.431-0.434c-1.188-0.792-1.511-2.397-0.719-3.586
			c6.973-10.471,10.659-22.899,10.659-35.941c0-22.141-10.907-42.524-28.463-53.195c-1.221-0.742-1.609-2.332-0.867-3.553
			c0.741-1.221,2.331-1.609,3.553-0.867c19.09,11.603,30.949,33.679,30.949,57.615c0,14.066-3.985,27.485-11.526,38.809
			C191.603,112.929,190.783,113.333,189.946,113.333z"/>
	</g>
	<g>
		<path fill="#B79300" d="M171.681,131.151c-0.867,0-1.714-0.436-2.203-1.228c-0.75-1.216-0.374-2.809,0.842-3.559
			c2.608-1.61,5.126-3.481,7.483-5.562c1.071-0.945,2.706-0.842,3.65,0.229s0.843,2.705-0.228,3.65
			c-2.577,2.273-5.332,4.32-8.188,6.084C172.614,131.026,172.145,131.151,171.681,131.151z"/>
	</g>
</g>
<g>
	<g>
		<path fill="#B79300" d="M116.5,463.533h-11.696c-1.428,0-2.586-1.156-2.586-2.586c0-1.428,1.158-2.586,2.586-2.586H116.5
			c26.493,0,48.047-23.873,48.047-53.219s-21.554-53.219-48.047-53.219h-11.696c-1.428,0-2.586-1.158-2.586-2.586
			c0-1.43,1.158-2.588,2.586-2.588H116.5c29.345,0,53.219,26.195,53.219,58.393S145.846,463.533,116.5,463.533z"/>
	</g>
	<g>
		<path fill="#B79300" d="M104.805,463.533C104.805,463.533,104.805,463.533,104.805,463.533c-9.474,0-18.734-2.752-26.856-7.967
			l-17.334,3.836c-0.855,0.189-1.752-0.068-2.376-0.686s-0.893-1.508-0.714-2.367l3.688-17.699
			c-6.301-9.846-9.626-21.406-9.626-33.508c0-32.197,23.874-58.393,53.219-58.393c1.428,0,2.586,1.158,2.586,2.588
			c0,1.428-1.158,2.586-2.586,2.586c-26.494,0-48.047,23.873-48.047,53.219c0,11.455,3.236,22.367,9.357,31.555
			c0.384,0.576,0.521,1.283,0.379,1.961l-3.09,14.83l14.494-3.207c0.691-0.152,1.416-0.016,2.002,0.379
			c7.486,5.039,16.098,7.701,24.905,7.701c1.428,0,2.585,1.158,2.585,2.586C107.391,462.377,106.233,463.533,104.805,463.533z"/>
	</g>
	<g>
		<path fill="#B79300" d="M145.647,440.717c-0.492,0-0.99-0.141-1.431-0.434c-1.189-0.791-1.511-2.396-0.719-3.586
			c6.121-9.188,9.355-20.1,9.355-31.555c0-19.436-9.57-37.326-24.977-46.691c-1.221-0.742-1.608-2.332-0.867-3.553
			c0.741-1.221,2.332-1.609,3.553-0.867c16.939,10.297,27.462,29.881,27.462,51.111c0,12.479-3.535,24.381-10.224,34.422
			C147.304,440.312,146.483,440.717,145.647,440.717z"/>
	</g>
	<g>
		<path fill="#B79300" d="M129.527,456.443c-0.867,0-1.714-0.434-2.203-1.227c-0.75-1.215-0.375-2.809,0.841-3.559
			c2.289-1.414,4.498-3.055,6.563-4.879c1.07-0.945,2.705-0.844,3.65,0.229c0.945,1.07,0.843,2.705-0.228,3.65
			c-2.285,2.016-4.731,3.832-7.268,5.4C130.46,456.32,129.99,456.443,129.527,456.443z"/>
	</g>
</g>
<g>
	<g>
		<path fill="#B79300" d="M473.914,354.23h-6.97c-1.429,0-2.586-1.158-2.586-2.588c0-1.428,1.157-2.586,2.586-2.586h6.97
			c15.211,0,27.587-13.756,27.587-30.666c0-16.912-12.376-30.67-27.587-30.67h-6.97c-1.429,0-2.586-1.158-2.586-2.586
			c0-1.43,1.157-2.586,2.586-2.586h6.97c18.063,0,32.76,16.078,32.76,35.842C506.674,338.152,491.978,354.23,473.914,354.23z"/>
	</g>
	<g>
		<path fill="#B79300" d="M466.944,354.23c-5.702,0-11.278-1.615-16.198-4.68l-9.911,2.193c-0.856,0.186-1.752-0.068-2.376-0.686
			s-0.893-1.508-0.714-2.369l2.112-10.131c-3.715-5.957-5.672-12.904-5.672-20.168c0-19.764,14.695-35.842,32.759-35.842
			c1.429,0,2.586,1.156,2.586,2.586c0,1.428-1.157,2.586-2.586,2.586c-15.211,0-27.587,13.758-27.587,30.67
			c0,6.619,1.867,12.92,5.4,18.225c0.384,0.576,0.521,1.281,0.379,1.961l-1.512,7.252l7.06-1.561
			c0.689-0.152,1.415-0.016,2.002,0.379c4.289,2.885,9.22,4.41,14.258,4.41c1.429,0,2.586,1.158,2.586,2.586
			C469.53,353.072,468.373,354.23,466.944,354.23z"/>
	</g>
	<g>
		<path fill="#B79300" d="M491.281,340.635c-0.492,0-0.99-0.141-1.431-0.434c-1.188-0.793-1.511-2.398-0.72-3.586
			c3.533-5.305,5.401-11.607,5.401-18.225c0-11.221-5.511-21.541-14.382-26.934c-1.221-0.74-1.608-2.332-0.867-3.553
			c0.743-1.219,2.333-1.605,3.554-0.865c10.404,6.322,16.868,18.336,16.868,31.352c0,7.641-2.168,14.936-6.269,21.092
			C492.938,340.23,492.117,340.635,491.281,340.635z"/>
	</g>
	<path fill="none" stroke="#B79300" stroke-width="6" stroke-linecap="round" stroke-linejoin="round" stroke-miterlimit="10" d="
		M481.676,347.42c1.451-0.898,2.828-1.924,4.12-3.062"/>
</g>
<g>
	<path fill="#E96D00" d="M49.245,246.152c-0.662,0-1.324-0.252-1.829-0.757c-1.01-1.01-1.01-2.647,0-3.657l87.437-87.437
		c1.01-1.01,2.648-1.01,3.657,0c1.01,1.01,1.01,2.647,0,3.657l-87.437,87.437C50.569,245.9,49.907,246.152,49.245,246.152z"/>
</g>
<g>
	<path fill="#E96D00" d="M301.035,161.39c-0.661,0-1.323-0.253-1.828-0.758c-1.011-1.01-1.011-2.647,0-3.657l46.393-46.392
		c1.011-1.009,2.647-1.01,3.657,0c1.01,1.01,1.01,2.647,0,3.658l-46.393,46.392C302.358,161.137,301.697,161.39,301.035,161.39z"/>
</g>
<g>
	<path fill="#E96D00" d="M7.642,225.786c-0.662,0-1.324-0.253-1.829-0.758c-1.01-1.01-1.01-2.647,0-3.657l71.881-71.881
		c1.01-1.01,2.648-1.01,3.657,0c1.01,1.01,1.01,2.647,0,3.657L9.471,225.028C8.966,225.533,8.304,225.786,7.642,225.786z"/>
</g>
<g>
	<path fill="#E96D00" d="M20.684,180.25c-0.662,0-1.324-0.252-1.829-0.757c-1.01-1.01-1.01-2.647,0-3.657l58.081-58.081
		c1.009-1.01,2.647-1.01,3.657,0c1.01,1.01,1.01,2.647,0,3.657l-58.081,58.081C22.007,179.998,21.345,180.25,20.684,180.25z"/>
</g>
<g>
	<path fill="#E96D00" d="M370.267,208.389c-0.662,0-1.323-0.252-1.829-0.758c-1.01-1.01-1.01-2.647,0-3.657l46.393-46.392
		c1.01-1.01,2.646-1.01,3.657,0c1.01,1.01,1.01,2.647,0,3.657l-46.393,46.392C371.59,208.136,370.928,208.389,370.267,208.389z"/>
</g>
<g>
	<path fill="#E96D00" d="M373.195,177.321c-0.662,0-1.323-0.253-1.829-0.758c-1.01-1.01-1.01-2.647,0-3.657l20.269-20.267
		c1.01-1.009,2.646-1.01,3.656,0c1.011,1.01,1.011,2.647,0,3.657l-20.268,20.267C374.519,177.068,373.856,177.321,373.195,177.321z"
		/>
</g>
<g>
	<path fill="#E96D00" d="M400.184,411.006c-0.662,0-1.324-0.252-1.829-0.758c-1.01-1.01-1.01-2.648,0-3.656l46.393-46.395
		c1.01-1.01,2.646-1.01,3.656,0c1.011,1.01,1.011,2.648,0,3.658l-46.392,46.393C401.507,410.754,400.845,411.006,400.184,411.006z"
		/>
</g>
<g>
	<path fill="#E96D00" d="M332.119,448.727c-0.662,0-1.323-0.252-1.829-0.758c-1.01-1.01-1.01-2.648,0-3.656l98.413-98.412
		c1.011-1.012,2.646-1.012,3.657,0c1.01,1.008,1.01,2.646,0,3.656l-98.413,98.412C333.442,448.475,332.78,448.727,332.119,448.727z"
		/>
</g>
<g>
	<path fill="#E96D00" d="M183.806,488.764c-0.662,0-1.324-0.252-1.829-0.758c-1.01-1.01-1.01-2.648,0-3.656l98.413-98.414
		c1.01-1.01,2.646-1.01,3.656,0c1.011,1.01,1.011,2.648,0,3.658l-98.413,98.412C185.13,488.512,184.468,488.764,183.806,488.764z"/>
</g>
<g>
	<path fill="#E96D00" d="M144.939,340.451c-0.662,0-1.324-0.254-1.829-0.758c-1.01-1.01-1.01-2.648,0-3.658l46.393-46.391
		c1.01-1.012,2.648-1.01,3.657,0c1.01,1.008,1.01,2.646,0,3.656l-46.393,46.393C146.263,340.197,145.601,340.451,144.939,340.451z"
		/>
</g>
<g>
	<path fill="#E96D00" d="M198.654,430.811c-0.662,0-1.324-0.252-1.829-0.758c-1.01-1.01-1.01-2.646,0-3.656l46.393-46.393
		c1.01-1.01,2.647-1.008,3.657,0c1.01,1.012,1.01,2.648,0,3.658l-46.393,46.391C199.978,430.559,199.316,430.811,198.654,430.811z"
		/>
</g>
<line fill="none" stroke="#E96D00" stroke-width="6" stroke-linecap="round" stroke-linejoin="round" stroke-miterlimit="10" x1="48.804" y1="464.959" x2="9.76" y2="504"/>
<g>
	<path fill="#E96D00" d="M44.853,503.348c-0.662,0-1.324-0.252-1.829-0.758c-1.01-1.01-1.01-2.648,0-3.656l30.894-30.895
		c1.01-1.01,2.648-1.01,3.658,0s1.01,2.648,0,3.658L46.681,502.59C46.176,503.096,45.514,503.348,44.853,503.348z"/>
</g>
<g>
	<path fill="#E96D00" d="M6.586,480.012c-0.662,0-1.324-0.254-1.829-0.758c-1.01-1.01-1.01-2.648,0-3.658l38.78-38.777
		c1.01-1.01,2.647-1.01,3.657,0s1.01,2.646,0,3.656L8.415,479.254C7.91,479.758,7.248,480.012,6.586,480.012z"/>
</g>
</svg>
