<?xml version="1.0" encoding="utf-8"?>
<!-- Generator: Adobe Illustrator 16.0.0, SVG Export Plug-In . SVG Version: 6.00 Build 0)  -->
<!DOCTYPE svg PUBLIC "-//W3C//DTD SVG 1.1//EN" "http://www.w3.org/Graphics/SVG/1.1/DTD/svg11.dtd">
<svg version="1.1" id="Layer_1" xmlns="http://www.w3.org/2000/svg" xmlns:xlink="http://www.w3.org/1999/xlink" x="0px" y="0px"
	 width="958.444px" height="958.446px" viewBox="-116.555 -138.614 958.444 958.446"
	 enable-background="new -116.555 -138.614 958.444 958.446" xml:space="preserve">
<g>
	<g>
		<path opacity="0.07" fill="#FF8F00" enable-background="new    " d="M735.614,354.411c5.87-88.549-19.802-179.395-78.429-254.643
			C529.926-63.569,294.581-92.789,131.242,34.47c-38.519,30.01-69.729,66.324-93.004,106.052
			C21.133,169.685,8.375,200.739-0.196,232.85c-0.498,1.826-0.993,3.652-1.258,5.777c0,0-0.297,0.232-0.064,0.531
			c-2.746,11.257-4.961,22.581-6.645,33.971c0,0,0,0-0.299,0.232c-2.709,17.465-4.122,35.361-4.172,53.156
			c-0.094,7.27,0.045,14.839,0.483,22.178c0.978,20.352,3.618,40.369,7.851,60.584c2.566,11.916,5.664,23.898,9.591,35.714
			c0.398,1.13,1.034,2.555,1.131,3.918c4.096,12.645,9.085,24.593,14.606,36.606c0.233,0.299,0.167,0.829,0.399,1.128
			c0.631,1.429,1.263,2.855,1.896,4.283c4.024,8.861,8.646,17.255,13.267,25.651c0.398,1.13,1.329,2.323,2.027,3.221
			c2.427,4.346,5.386,8.761,8.113,12.874c6.082,9.656,12.763,18.847,19.743,27.805c45.367,58.229,104.429,99.544,169.292,122.433
			c5.944,2.088,11.656,3.876,17.367,5.662c8.833,2.715,17.964,5.199,27.164,7.15c3.419,0.692,6.84,1.388,10.26,2.082
			c5.013,0.893,10.027,1.783,15.042,2.676c1.591,0.199,3.421,0.694,5.312,0.661c12.982,1.879,25.799,2.933,38.979,3.22
			c17.201,0.517,34.529-0.028,51.459-1.702c14.739-1.405,29.609-3.875,44.316-7.177c10.556-2.465,21.41-5.162,31.565-8.758
			c2.787-0.73,5.344-1.762,8.43-2.727c26.189-8.887,51.708-21.095,76.033-36.686"/>
		<path fill="none" stroke="#FF8F00" stroke-width="8" stroke-linecap="round" stroke-linejoin="round" stroke-miterlimit="10" d="
			M-10.645,290.787c-0.885,8.623-1.458,17.29-1.708,25.943c-0.284,7.265-0.341,14.835-0.094,22.182
			c0.448,20.371,2.566,40.45,6.272,60.768c2.255,11.979,5.04,24.039,8.659,35.953c0.368,1.14,0.966,2.581,1.029,3.946
			c3.764,12.747,8.441,24.821,13.649,36.974c0.225,0.306,0.145,0.833,0.369,1.138c0.595,1.444,1.189,2.887,1.785,4.331
			c3.792,8.962,8.194,17.474,12.595,25.987c0.369,1.14,1.268,2.357,1.943,3.272c2.313,4.407,5.156,8.898,7.775,13.081
			c5.829,9.811,12.269,19.172,19.013,28.31c43.836,59.389,101.803,102.227,166.048,126.795c5.888,2.244,11.551,4.18,17.214,6.113
			c8.759,2.943,17.823,5.664,26.968,7.854c3.399,0.781,6.801,1.564,10.203,2.349c4.988,1.021,9.977,2.042,14.968,3.066
			c1.586,0.24,3.401,0.782,5.292,0.798c12.929,2.216,25.715,3.604,38.882,4.235c17.182,0.962,34.518,0.867,51.486-0.365
			c14.771-1.021,29.7-3.103,44.486-6.019c10.617-2.191,21.537-4.605,31.784-7.936c2.805-0.657,5.387-1.622,8.497-2.507
			c26.411-8.201,52.241-19.741,76.961-34.694"/>
		<path fill="none" stroke="#FF8F00" stroke-width="8" stroke-linecap="round" stroke-linejoin="round" stroke-miterlimit="10" d="
			M734.913,364.085c8.175-88.367-15.127-179.849-71.775-256.598C555.543-38.281,362.552-83.557,204.38-10.22"/>
	</g>
	<g>
		
			<path fill="#48BC97" stroke="#099C6A" stroke-width="8" stroke-linecap="round" stroke-linejoin="round" stroke-miterlimit="10" d="
			M607.497,336.483c1.994-125.351-97.928-228.497-223.276-230.49l1.352-85.083L270.329,132.551l111.638,115.244l1.352-85.082
			c93.875,1.492,168.951,78.992,167.458,172.868c-0.131,8.237-0.865,16.343-2.132,24.274h57.262
			C606.828,352.181,607.371,344.386,607.497,336.483z"/>
		<g>
			
				<path fill="#48BC97" stroke="#099C6A" stroke-width="8" stroke-linecap="round" stroke-linejoin="round" stroke-miterlimit="10" d="
				M452.17,533.202L340.531,417.957l-1.353,85.081c-93.875-1.492-168.95-78.991-167.458-172.866
				c0.281-17.673,3.262-34.761,8.583-50.743h-58.909c-3.908,15.991-6.121,32.667-6.395,49.841
				c-1.993,125.35,97.927,228.497,223.277,230.49l-1.353,85.08L452.17,533.202z"/>
		</g>
	</g>
	<g>
		
			<path fill="#4ABFEE" stroke="#1B96D3" stroke-width="8" stroke-linecap="round" stroke-linejoin="round" stroke-miterlimit="10" d="
			M786.711,411.276c0-17.071-13.813-31.036-30.886-31.036H507.54c-17.07,0-31.036,13.965-31.036,31.036v186.215
			c0,17.07,13.966,31.035,31.036,31.035h217.25l62.072,62.071L786.711,411.276z"/>
	</g>
	<g>
		
			<path fill="#FFDBB3" stroke="#FF8F00" stroke-width="8" stroke-linecap="round" stroke-linejoin="round" stroke-miterlimit="10" d="
			M717.795,474.318c0,12.447-5.125,25.625-13.179,32.947l-68.092,70.29l-8.055-8.054l-54.913-56.377l-5.125-5.125
			c-8.054-8.054-13.179-21.233-13.179-32.947c0-24.162,19.77-43.199,43.93-43.199c15.377,0,29.287,8.054,37.342,20.501
			c8.055-12.447,21.232-20.501,37.341-20.501C698.027,431.119,717.795,450.156,717.795,474.318z"/>
	</g>
	<g>
		<g>
			<g>
				<path fill="#FFDBB3" d="M-63.604,38.342c0-15.39,12.45-27.909,27.752-27.909h255.258c15.388,0,27.907,12.519,27.907,27.907
					v191.444c0,15.388-12.519,27.907-27.907,27.907H-3.944c-1.061,0-2.078,0.421-2.829,1.171l-56.981,56.981L-63.604,38.342z"/>
				<path fill="#FF8F00" d="M219.407,14.432c13.182,0,23.907,10.725,23.907,23.907v191.444c0,13.182-10.725,23.907-23.907,23.907
					H-3.944c-2.122,0-4.157,0.843-5.657,2.343l-50.148,50.147l0.145-267.841c0-13.183,10.655-23.907,23.752-23.907H219.407
					 M219.407,6.432H-35.851c-17.551,0-31.752,14.356-31.752,31.907l-0.155,287.165l63.815-63.814h223.351
					c17.55,0,31.907-14.357,31.907-31.907V38.34C251.314,20.789,236.957,6.432,219.407,6.432L219.407,6.432z"/>
			</g>
		</g>
		<g>
			
				<path fill="#4ABFEE" stroke="#1B96D3" stroke-width="8" stroke-linecap="round" stroke-linejoin="round" stroke-miterlimit="10" d="
				M97,124.544c-19.816-5.148-26.189-10.475-26.189-18.768c0-9.516,8.817-16.15,23.57-16.15c15.539,0,21.299,7.421,21.824,18.333
				h19.292c-0.611-15.015-9.776-28.808-28.022-33.26V55.582H81.286v18.854c-16.934,3.668-30.553,14.667-30.553,31.515
				c0,20.166,16.673,30.204,41.028,36.053c21.824,5.238,26.189,12.92,26.189,21.04c0,6.022-4.278,15.625-23.569,15.625
				c-17.983,0-25.055-8.032-26.014-18.333H49.162c1.047,19.118,15.364,29.855,32.124,33.436v18.942h26.188v-18.768
				c17.023-3.231,30.554-13.094,30.554-30.99C138.029,138.163,116.816,129.695,97,124.544z"/>
		</g>
	</g>
</g>
</svg>
