<?xml version="1.0" encoding="utf-8"?>
<!-- Generator: Adobe Illustrator 16.0.0, SVG Export Plug-In . SVG Version: 6.00 Build 0)  -->
<!DOCTYPE svg PUBLIC "-//W3C//DTD SVG 1.1//EN" "http://www.w3.org/Graphics/SVG/1.1/DTD/svg11.dtd">
<svg version="1.1" id="Capa_1" xmlns="http://www.w3.org/2000/svg" xmlns:xlink="http://www.w3.org/1999/xlink" x="0px" y="0px"
	 width="512px" height="512px" viewBox="0 0 512 512" enable-background="new 0 0 512 512" xml:space="preserve">
<g>
</g>
<g>
	<path fill="#392C19" d="M191.068,342.596c-6.706-6.705-17.636-17.635-22.457-22.456l25.37-25.37
		c3.249,4.102,6.782,8.069,10.57,11.858c3.798,3.797,7.775,7.34,11.885,10.598L191.068,342.596z"/>
	<path fill="#165F9B" d="M194.326,343.447c-0.625-0.625-1.317-1.317-2.055-2.056c-6.706-6.706-17.635-17.635-22.456-22.455
		c-1.052-1.052-1.819-1.819-2.169-2.169c-4.489-4.489-8.675-0.303-8.675-0.303l-83.99,83.988c-9.868,9.869-9.868,25.874,0,35.744
		c9.869,9.868,25.875,9.868,35.744,0l83.809-83.81C194.535,352.388,199.507,348.628,194.326,343.447z"/>
	<path fill="#165F9B" d="M400.442,110.736c-54.533-54.534-142.954-54.534-197.488,0c-50.754,50.754-54.278,130.822-10.569,185.63
		c3.248,4.103,6.781,8.07,10.569,11.858c3.798,3.797,7.775,7.34,11.886,10.598c54.808,43.67,134.858,40.146,185.602-10.598
		C454.978,253.69,454.978,165.269,400.442,110.736z"/>
	<circle fill="#93C0E0" cx="301.694" cy="209.484" r="119.966"/>
	<g>
		<path fill="#4C3D2A" d="M282.434,124.056c0,0-49.589,7.127-46.209,95.498c0,0,2.683,30.797-6.766,45.249l76.607,1.34
			L282.434,124.056z"/>
		<path fill="#4C3D2A" d="M322.297,125.826c0,0,48.251,8.036,44.868,96.407c-0.619,10.911-0.726,29.065,8.106,42.57l-77.946,1.34
			L322.297,125.826z"/>
		<path fill="#F19B51" d="M322.57,280.832c0,0-2.438,14.698-21.003,14.698c-18.568,0-21.006-14.698-21.006-14.698v-48.007h42.009
			V280.832z"/>
		<path fill="#FFC27A" d="M304.268,125.546c-26.293-1.462-48.19,20.07-48.19,46.406v48.014c0,0,9.728,49.133,45.618,49.133
			s45.618-49.133,45.618-49.133v-48.874C347.313,146.762,328.266,126.88,304.268,125.546z"/>
		<g>
			<ellipse fill="#FFC27A" cx="347.431" cy="205.291" rx="12.971" ry="14.929"/>
			<ellipse fill="#FFC27A" cx="256.059" cy="205.291" rx="12.97" ry="14.929"/>
		</g>
		<g>
			<circle fill="#422918" cx="279.252" cy="199.7" r="4.142"/>
		</g>
		<g>
			<circle fill="#422918" cx="325.119" cy="199.7" r="4.142"/>
		</g>
		<path fill="#FFFFFF" d="M279.253,235.13c0,0,24.076,2.035,45.121-4.574C324.374,230.556,305.531,271.448,279.253,235.13z"/>
		<path fill="#4C3D2A" d="M347.186,201.814l-3.601-7.449c0,0-42.151-11.729-62.49-45.913c0,0,9.687,25.08,40.302,41.521
			c0,0-31.616,0.39-52.294-34.573c0,0,1.11,29.46-13.154,46.414l-4.442-9.666c0,0-10.847-71.389,49.928-71.389
			c60.772,0,48.813,69.967,48.813,69.967L347.186,201.814z"/>
	</g>
	<g>
		<path fill="#241A02" d="M168.262,325.585c-1.304,0-2.608-0.497-3.603-1.492c-1.99-1.989-1.99-5.216,0-7.205l22.755-22.757
			c1.991-1.99,5.216-1.99,7.207,0c1.99,1.989,1.99,5.217,0,7.206l-22.755,22.756C170.871,325.088,169.567,325.585,168.262,325.585z"
			/>
	</g>
	<g>
		<path fill="#241A02" d="M189.74,349.02c-1.304,0-2.608-0.498-3.604-1.493c-1.99-1.989-1.99-5.216,0-7.205l23.434-23.434
			c1.99-1.991,5.216-1.991,7.207,0c1.99,1.989,1.99,5.216,0,7.205l-23.434,23.434C192.348,348.521,191.044,349.02,189.74,349.02z"/>
	</g>
	<g>
		<path fill="#0C4B7C" d="M92.854,448.693c-8.113,0-15.74-3.158-21.475-8.893c-11.84-11.843-11.84-31.11,0-42.951l80.731-80.729
			c0.544-0.546,3.486-3.267,7.853-3.267c2.034,0,5.078,0.619,8.028,3.569l26.681,26.682c3.438,3.437,3.978,6.792,3.826,9.001
			c-0.271,3.918-2.745,6.424-3.793,7.318L114.329,439.8C108.594,445.535,100.967,448.693,92.854,448.693z M159.963,323.044
			c-0.194,0-0.644,0.278-0.646,0.281l-80.732,80.73c-7.867,7.867-7.867,20.67,0,28.539c3.811,3.81,8.877,5.908,14.269,5.908
			c5.391,0,10.458-2.099,14.269-5.908l80.55-80.551c0.232-0.232,0.23-0.263,0.458-0.414c0.064-0.068,0.131-0.154,0.174-0.225
			c-0.077-0.18-0.308-0.564-0.839-1.096l-26.683-26.684C160.305,323.148,160.01,323.044,159.963,323.044z"/>
	</g>
	<g>
		<path fill="#0C4B7C" d="M301.716,353.656c-0.004,0-0.004,0-0.006,0c-32.515-0.002-64.368-11.113-89.692-31.292
			c-4.243-3.361-8.373-7.044-12.266-10.937c-3.885-3.887-7.559-8.008-10.918-12.25c-45.707-57.315-41.018-139.708,10.917-191.645
			c27.23-27.231,63.436-42.228,101.948-42.228c38.511,0,74.716,14.997,101.945,42.228c27.231,27.23,42.229,63.436,42.229,101.947
			s-14.998,74.717-42.229,101.947C376.414,338.659,340.214,353.656,301.716,353.656z M301.699,74.364
			c-36.091,0-70.022,14.055-95.542,39.575c-48.672,48.672-53.071,125.885-10.231,179.603c3.153,3.983,6.592,7.841,10.231,11.48
			c3.648,3.646,7.516,7.096,11.496,10.25c23.736,18.913,53.584,29.323,84.057,29.324c36.082,0.002,70.008-14.053,95.53-39.574
			c25.52-25.521,39.575-59.451,39.575-95.542s-14.056-70.022-39.575-95.541C371.721,88.419,337.789,74.364,301.699,74.364z"/>
	</g>
	<g>
		<path fill="#3B2E1B" d="M301.954,123.859c7.562,0,15.702,1.393,21.681,6.085c0,0,41.892,6.45,39.513,89.709
			c-0.312,10.925-0.726,29.065,8.105,42.57l-48.683,0.229v5.128v13.351c0,0-2.438,14.698-21.003,14.698
			c-18.568,0-21.006-14.698-21.006-14.698v-13.351v-5.357h-48.424c9.449-14.453,8.106-42.57,8.106-42.57
			c-3.38-88.37,40.852-92.819,40.852-92.819S290.905,123.86,301.954,123.859 M301.958,117.162v6.697l-0.002-6.697
			c-10.507,0-19.886,2.438-22.248,3.103c-3.136,0.479-14.488,3.017-25.347,15.431c-15.278,17.465-22.28,45.799-20.81,84.213
			c0.001,0.021,0.002,0.042,0.003,0.063c0.336,7.229-0.271,28.261-7.022,38.587c-1.346,2.058-1.455,4.688-0.285,6.851
			c1.17,2.163,3.431,3.51,5.891,3.51h41.728v12.012c0,0.367,0.029,0.733,0.09,1.095c1.164,7.021,8.434,20.3,27.612,20.3
			c19.176,0,26.444-13.278,27.61-20.3c0.06-0.361,0.09-0.728,0.09-1.095v-11.813l42.017-0.198c2.453-0.011,4.705-1.363,5.867-3.523
			c1.162-2.161,1.049-4.785-0.293-6.837c-7.785-11.905-7.304-28.688-7.017-38.714c2.264-79.247-34.482-93.772-43.35-96.117
			C320.271,119.37,312.028,117.162,301.958,117.162L301.958,117.162z"/>
	</g>
</g>
</svg>
