<?xml version="1.0" encoding="utf-8"?>
<!-- Generator: Adobe Illustrator 16.0.0, SVG Export Plug-In . SVG Version: 6.00 Build 0)  -->
<!DOCTYPE svg PUBLIC "-//W3C//DTD SVG 1.1//EN" "http://www.w3.org/Graphics/SVG/1.1/DTD/svg11.dtd">
<svg version="1.1" id="Capa_1" xmlns="http://www.w3.org/2000/svg" xmlns:xlink="http://www.w3.org/1999/xlink" x="0px" y="0px"
	 width="512px" height="512px" viewBox="0 0 512 512" enable-background="new 0 0 512 512" xml:space="preserve">
<g>
</g>
<polyline fill="#ECECEC" points="200.526,310.794 128.104,310.794 89.445,348.739 89.445,310.794 35.24,310.794 35.24,120.498 
	390.817,120.498 "/>
<polyline fill="#ECECEC" points="126.149,385.165 354.509,385.165 391.965,421.933 391.965,385.165 481.5,385.165 481.5,194.869 
	316.214,194.869 "/>
<path fill="#F18B15" d="M401.714,246.09c-23.336,0.532-41.821,19.884-41.283,43.228c0.199,8.753,3.049,16.822,7.771,23.467
	c-0.403,1.582-2.735,10.812-3.603,14.604c-0.211,0.935,0.178,1.452,1.086,1.193c3.676-1.077,13.192-3.67,14.979-4.153
	c6.685,4.085,14.577,6.363,22.995,6.172c23.336-0.538,41.822-19.891,41.283-43.227C444.41,264.037,425.059,245.552,401.714,246.09z"
	/>
<polygon fill="#FFFFFF" points="377.485,289.733 387.458,279.112 397.901,289.093 416.858,269.072 427.303,279.052 398.194,309.353 
	"/>
<g>
	<g>
		<path fill="#3092C2" d="M144.497,254.385c21.693-12.524,29.1-40.306,16.545-62.054c-12.557-21.748-40.32-29.226-62.014-16.701
			l-6.318,3.648l45.469,78.752L144.497,254.385z"/>
	</g>
	<g>
		
			<ellipse transform="matrix(0.866 -0.5 0.5 0.866 -93.8609 87.0166)" fill="#35A8E0" cx="115.445" cy="218.656" rx="45.355" ry="45.469"/>
	</g>
	<path fill="#FFFFFF" d="M97.396,215.046v16.846h7.221v-16.846H97.396z M111.835,215.046v16.846h7.221v-16.846H111.835z
		 M92.581,243.925h45.728v-7.219H92.581V243.925z M126.274,215.046v16.846h7.221v-16.846H126.274z M115.445,193.387L92.581,205.42
		v4.813h45.728v-4.813L115.445,193.387z"/>
</g>
<polygon fill="#868686" points="257.411,253.904 184.667,253.904 184.667,234.221 276.042,234.221 "/>
<polygon fill="#868686" points="285.498,225.817 184.667,225.817 184.667,206.134 305.545,206.134 "/>
<polygon fill="#868686" points="312.983,197.73 184.667,197.73 184.667,178.047 333.405,178.047 "/>
<polygon fill="#868686" points="258.736,252.063 331.481,252.063 331.481,271.747 240.104,271.747 "/>
<polygon fill="#868686" points="230.649,280.149 331.481,280.149 331.481,299.833 210.603,299.833 "/>
<polygon fill="#868686" points="203.164,308.237 331.481,308.237 331.481,327.921 182.743,327.921 "/>
<g>
	<path fill="#E96D00" d="M89.445,353.974c-0.377,0-0.757-0.071-1.121-0.218c-1.135-0.457-1.879-1.559-1.879-2.782v-37.18H35.24
		c-1.657,0-3-1.343-3-3V120.498c0-1.657,1.343-3,3-3h355.577c1.657,0,3,1.343,3,3s-1.343,3-3,3H38.24v184.296h51.205
		c1.657,0,3,1.343,3,3v32.734l33.498-34.814c0.565-0.588,1.346-0.92,2.162-0.92h72.422c1.657,0,3,1.343,3,3s-1.343,3-3,3h-71.145
		l-37.774,39.26C91.03,353.653,90.245,353.974,89.445,353.974z"/>
</g>
<g>
	<path fill="#E96D00" d="M391.966,427.167c-0.802,0-1.588-0.321-2.165-0.922l-36.57-38.08H126.149c-1.657,0-3-1.343-3-3s1.343-3,3-3
		h228.359c0.816,0,1.598,0.333,2.164,0.922l32.292,33.625v-31.547c0-1.657,1.343-3,3-3H478.5V197.869H316.214c-1.657,0-3-1.343-3-3
		s1.343-3,3-3H481.5c1.657,0,3,1.343,3,3v190.296c0,1.657-1.343,3-3,3h-86.535v36.002c0,1.225-0.744,2.326-1.88,2.783
		C392.722,427.096,392.342,427.167,391.966,427.167z"/>
</g>
<g>
	<path fill="#1D70B7" d="M-41.774,559.089c-1.536,0-3.071-0.586-4.243-1.758c-2.343-2.343-2.343-6.142,0-8.485L549.745-46.916
		c2.344-2.343,6.143-2.343,8.486,0c2.343,2.343,2.343,6.142-0.001,8.485L-37.532,557.332
		C-38.703,558.503-40.239,559.089-41.774,559.089z"/>
</g>
<g>
	<path fill="#E77B00" d="M402.679,334.506c-7.896,0-15.629-2.056-22.45-5.957c-2.955,0.805-10.486,2.863-13.699,3.806
		c-1.693,0.482-3.229-0.002-4.165-1.172c-0.436-0.545-1.105-1.733-0.691-3.562c0.728-3.184,2.491-10.216,3.286-13.364
		c-4.734-7.118-7.332-15.378-7.527-23.978c-0.279-12.09,4.167-23.564,12.519-32.309c8.351-8.744,19.607-13.711,31.695-13.986
		c12.261-0.285,23.905,4.312,32.665,12.862c8.519,8.315,13.359,19.45,13.631,31.352c0.576,24.951-19.258,45.72-44.213,46.296
		C403.377,334.502,403.027,334.506,402.679,334.506z M381.126,322.088l1.103,0.674c6.406,3.915,13.773,5.899,21.362,5.734
		c21.647-0.5,38.853-18.516,38.353-40.16c-0.482-21.154-18.083-38.364-39.234-38.364c-0.309,0-0.615,0.004-0.926,0.011
		c-10.486,0.239-20.25,4.547-27.494,12.133c-7.244,7.585-11.101,17.538-10.859,28.026c0.18,7.868,2.675,15.405,7.217,21.798
		l0.805,1.132l-0.343,1.346c-0.322,1.264-1.754,6.932-2.789,11.188c4.837-1.355,11.476-3.157,11.56-3.18L381.126,322.088z"/>
</g>
<g>
	<g>
		<path fill="#1D70B7" d="M138.082,260.75c-0.855,0-1.687-0.443-2.145-1.237c-0.683-1.183-0.277-2.696,0.906-3.379l6.362-3.671
			c20.624-11.907,27.69-38.42,15.751-59.101c-11.941-20.68-38.433-27.818-59.059-15.91l-6.361,3.673
			c-1.185,0.684-2.696,0.278-3.379-0.905c-0.683-1.183-0.278-2.696,0.905-3.379l6.361-3.673
			c22.987-13.271,52.513-5.322,65.817,17.72c13.303,23.043,5.424,52.587-17.563,65.859l-6.362,3.671
			C138.927,260.644,138.501,260.75,138.082,260.75z"/>
	</g>
</g>
<g>
	<g>
		<path fill="#1D70B7" d="M160.888,221.84c-0.013,0-0.025,0-0.038,0c-1.366-0.021-2.457-1.145-2.437-2.51
			c0.116-7.791-1.896-15.5-5.818-22.294c-6.971-12.076-19.415-20.105-33.286-21.479c-1.36-0.135-2.353-1.346-2.218-2.706
			c0.135-1.36,1.352-2.353,2.706-2.218c15.454,1.531,29.317,10.476,37.084,23.929c4.369,7.568,6.609,16.158,6.48,24.841
			C163.34,220.756,162.237,221.84,160.888,221.84z"/>
	</g>
	<g>
		<path fill="#1D70B7" d="M115.368,266.878c-4.202,0-8.431-0.556-12.6-1.678c-12.43-3.348-22.824-11.338-29.268-22.5
			c-13.304-23.042-5.425-52.587,17.562-65.859c1.184-0.684,2.697-0.278,3.379,0.905c0.683,1.183,0.278,2.696-0.905,3.379
			c-20.625,11.909-27.691,38.421-15.752,59.102c5.785,10.019,15.114,17.191,26.271,20.195c11.153,3.004,22.798,1.481,32.789-4.286
			c1.184-0.684,2.696-0.277,3.379,0.905c0.683,1.184,0.278,2.696-0.905,3.379C131.916,264.694,123.697,266.878,115.368,266.878z"/>
	</g>
	<g>
		<path fill="#1D70B7" d="M157.954,237.322c-0.289,0-0.583-0.051-0.87-0.159c-1.279-0.481-1.926-1.907-1.446-3.186
			c0.791-2.103,1.422-4.287,1.878-6.491c0.277-1.338,1.588-2.2,2.923-1.921c1.338,0.277,2.198,1.586,1.921,2.923
			c-0.508,2.455-1.211,4.887-2.091,7.229C159.897,236.71,158.955,237.322,157.954,237.322z"/>
	</g>
</g>
</svg>
