<?xml version="1.0" encoding="utf-8"?>
<!-- Generator: Adobe Illustrator 16.0.0, SVG Export Plug-In . SVG Version: 6.00 Build 0)  -->
<!DOCTYPE svg PUBLIC "-//W3C//DTD SVG 1.1//EN" "http://www.w3.org/Graphics/SVG/1.1/DTD/svg11.dtd">
<svg version="1.1" id="Layer_1" xmlns="http://www.w3.org/2000/svg" xmlns:xlink="http://www.w3.org/1999/xlink" x="0px" y="0px"
	 width="958.443px" height="958.445px" viewBox="0 0 958.443 958.445" enable-background="new 0 0 958.443 958.445"
	 xml:space="preserve">
<path opacity="0.07" fill="#FF8F00" enable-background="new    " d="M734.254,186.713c-68.414-60.987-158.72-97.734-257.236-97.734
	c-213.843,0-387.03,173.186-387.03,387.03c0,50.429,9.773,98.906,27.366,143.083c12.901,32.447,30.103,62.551,50.823,89.916
	c1.172,1.564,2.345,3.127,3.908,4.691c0,0,0,0.389,0.392,0.389c7.428,9.383,15.248,18.375,23.458,26.977c0,0,0,0,0,0.391
	c12.509,13.293,26.191,25.803,40.657,37.139c5.863,4.691,12.118,9.383,18.375,13.684c17.201,12.121,35.185,22.676,54.34,32.059
	c11.337,5.473,23.065,10.555,35.185,14.855c1.173,0.393,2.737,0.779,3.91,1.564c12.9,4.689,25.802,8.209,39.094,11.336
	c0.392,0,0.781,0.391,1.172,0.391c1.564,0.393,3.128,0.783,4.692,1.174c9.773,2.346,19.546,3.908,29.318,5.473
	c1.174,0.393,2.736,0.393,3.911,0.393c5.081,0.781,10.556,1.174,15.638,1.562c11.727,1.174,23.456,1.564,35.184,1.564
	c76.234,0,147.382-21.893,207.199-60.207c5.474-3.518,10.556-7.035,15.637-10.555c7.817-5.473,15.638-11.336,23.066-17.592
	c2.734-2.346,5.472-4.691,8.209-7.037c3.908-3.518,7.816-7.037,11.728-10.557c1.173-1.17,2.737-2.346,3.91-3.908
	c9.771-9.383,18.765-19.156,27.365-29.711c11.338-13.686,21.893-28.148,31.274-43.004c8.211-12.9,15.638-26.582,22.283-40.658
	c4.691-10.164,9.383-20.719,12.9-31.275c1.174-2.734,1.956-5.471,3.129-8.598c9.383-26.977,15.637-55.516,18.374-85.229"/>
<path fill="#F69899" stroke="#F05347" stroke-width="8" stroke-miterlimit="10" d="M442.224,753.574v107.898
	c-3.91-0.391-10.557-1.172-15.638-1.562c-1.174,0-2.737-0.391-3.911-0.391c-9.772-1.564-19.938-3.129-29.318-5.475
	c-1.564-0.393-3.128-0.779-4.692-1.172c-0.391,0-0.391,0-0.781-0.393c-13.292-3.129-27.365-7.037-39.095-11.336v-36.748
	c0-6.646-5.473-11.729-12.119-11.729h-82.098c-6.254-4.301-12.509-8.992-18.374-13.686c-14.465-11.336-27.757-23.848-40.658-37.139
	l0,0c-8.21-8.6-16.028-17.592-23.457-27.365h230.654C424.24,714.481,442.224,732.073,442.224,753.574z"/>
<path opacity="0.3" fill="#F05347" enable-background="new    " d="M293.276,780.94h-7.819c-12.9,0-23.457-10.555-23.457-23.455
	v-23.459h54.732v23.459C316.733,770.385,306.177,780.94,293.276,780.94z"/>
<path opacity="0.3" fill="#F05347" enable-background="new    " d="M250.663,734.026v23.459c0,9.771-5.863,17.98-14.073,21.5
	c-14.465-11.336-27.757-23.848-40.268-37.139l0,0v-7.82H250.663z"/>
<path fill="#4ABFEE" stroke="#1B96D3" stroke-width="8" stroke-linecap="round" stroke-linejoin="round" stroke-miterlimit="10" d="
	M348.399,804.397v36.748c0-0.391-2.737-0.783-3.91-1.562c-12.118-4.301-23.848-9.383-35.185-14.855
	c-19.155-9.383-37.53-19.938-54.34-32.057h81.314C342.926,792.668,348.399,797.75,348.399,804.397z"/>
<path fill="#F2CF98" stroke="#C68D2D" stroke-width="8" stroke-linecap="round" stroke-linejoin="round" stroke-miterlimit="10" d="
	M352.308,327.451v31.274c0,27.366-15.638,51.214-38.703,62.551c-5.083,2.736-8.209,7.818-8.209,13.683v25.411h-86.007v-45.74
	c-11.729-12.119-15.639-27.366-15.639-44.177v-41.439c0-38.311,29.711-70.76,67.633-71.933
	C311.65,255.517,352.308,287.576,352.308,327.451z"/>
<line fill="none" stroke="#1B96D3" stroke-width="2" stroke-linecap="round" stroke-linejoin="round" stroke-miterlimit="10" x1="649.421" y1="577.653" x2="782.339" y2="577.653"/>
<path fill="#FFDBB3" stroke="#FF8F00" stroke-width="8" stroke-linecap="round" stroke-linejoin="round" stroke-miterlimit="10" d="
	M680.304,577.653c15.639,0,26.976-15.248,22.285-30.102l-14.465-48.087h101.644l14.466,48.087
	c4.689,14.854-6.646,30.102-22.284,30.102h-66.46H680.304z"/>
<path fill="#FFDBB3" stroke="#FF8F00" stroke-width="8" stroke-linecap="round" stroke-linejoin="round" stroke-miterlimit="10" d="
	M895.322,515.102H555.204c-10.945,0-19.547-8.601-19.547-19.548V206.26c0-10.946,8.602-19.546,19.547-19.546h340.117
	c10.947,0,19.548,8.6,19.548,19.546v289.294C914.869,506.501,906.269,515.102,895.322,515.102z"/>
<path fill="#FFFFFF" stroke="#FF8F00" stroke-width="8" stroke-linecap="round" stroke-linejoin="round" stroke-miterlimit="10" d="
	M559.115,440.823V217.988c0-4.301,3.517-7.819,7.816-7.819h316.661c4.302,0,7.818,3.519,7.818,7.819v222.834
	c0,4.302-3.518,7.818-7.818,7.818H566.932C562.631,448.641,559.115,445.125,559.115,440.823z"/>
<circle opacity="0.5" fill="#FF8F00" enable-background="new    " cx="727.217" cy="479.917" r="11.728"/>
<line fill="none" stroke="#1B96D3" stroke-width="2" stroke-linecap="round" stroke-linejoin="round" stroke-miterlimit="10" x1="891.412" y1="249.262" x2="563.025" y2="249.262"/>
<path fill="#AECBD3" stroke="#FF8F00" stroke-width="8" stroke-linecap="round" stroke-linejoin="round" stroke-miterlimit="10" d="
	M891.804,217.988v31.274h-332.3v-31.274c0-4.301,3.127-7.819,7.428-7.819h316.661C887.895,210.169,891.804,213.688,891.804,217.988z
	"/>
<path fill="#BDAED5" stroke="#1B96D3" stroke-width="2" stroke-linecap="round" stroke-linejoin="round" stroke-miterlimit="10" d="
	M891.412,249.262H563.025H891.412z"/>
<path fill="#C0E7F9" d="M676.786,358.725c0,2.347-1.562,3.91-3.91,3.91h-70.367c-2.347,0-3.908-1.563-3.908-3.91v-70.369
	c0-2.345,1.562-3.908,3.908-3.908h70.367c2.349,0,3.91,1.563,3.91,3.908V358.725z"/>
<path fill="#C0E7F9" d="M695.943,346.998h148.557c2.346,0,3.909,1.563,3.909,3.909v7.818c0,2.347-1.563,3.91-3.909,3.91H695.943
	c-2.347,0-3.908-1.563-3.908-3.91v-7.818C692.034,348.561,693.596,346.998,695.943,346.998z"/>
<path fill="#C0E7F9" d="M695.943,378.272h148.557c2.346,0,3.909,1.564,3.909,3.91v7.818c0,2.346-1.563,3.909-3.909,3.909H695.943
	c-2.347,0-3.908-1.563-3.908-3.909v-7.818C692.034,379.837,693.596,378.272,695.943,378.272z"/>
<path fill="#C0E7F9" d="M695.943,284.448h148.557c2.346,0,3.909,1.563,3.909,3.908v39.095c0,2.346-1.563,3.91-3.909,3.91H695.943
	c-2.347,0-3.908-1.564-3.908-3.91v-39.095C692.034,286.011,693.596,284.448,695.943,284.448z"/>
<path fill="#C0E7F9" d="M602.117,378.272h70.371c2.343,0,3.908,1.564,3.908,3.91v7.818c0,2.346-1.565,3.909-3.908,3.909h-70.371
	c-2.347,0-3.909-1.563-3.909-3.909v-7.818C598.208,379.837,599.771,378.272,602.117,378.272z"/>
<circle fill="#1B96D3" cx="727.217" cy="417.365" r="7.819"/>
<circle fill="#1B96D3" cx="695.943" cy="417.365" r="7.819"/>
<circle fill="#1B96D3" cx="758.493" cy="417.365" r="7.819"/>
<circle fill="#FF8F00" cx="582.571" cy="229.716" r="7.819"/>
<circle fill="#FF8F00" cx="606.027" cy="229.716" r="7.819"/>
<circle fill="#FF8F00" cx="629.484" cy="229.716" r="7.819"/>
<path fill="#EAAE4E" stroke="#C68D2D" stroke-width="8" stroke-linecap="round" stroke-linejoin="round" stroke-miterlimit="10" d="
	M382.409,249.262c-19.548-29.32-50.823-50.821-50.823-50.821s5.864,50.821-27.364,50.821h-57.859
	c-30.103,0-54.73,24.628-54.73,54.731v43.003c0,21.501,17.593,39.094,39.093,39.094h35.186c21.501,0,39.095-17.592,39.095-39.094
	v-15.638c0-12.901,10.555-23.456,23.455-23.456h3.91v31.273h19.546v-31.273h3.126C386.709,307.905,401.956,278.583,382.409,249.262z
	"/>
<path opacity="0.2" fill="#C68D2D" enable-background="new    " d="M355.043,307.905h-2.735v31.273h-19.547v-31.273h-4.301
	c-12.9,0-23.064,10.555-23.064,23.456v15.638c0,21.501-17.983,39.094-39.485,39.094h-35.186c-12.9,0-24.238-6.254-31.275-15.638
	c1.173,0,2.736,0,3.91,0h35.184c21.502,0,39.486-17.592,39.486-39.093v-15.638c0-12.901,10.164-23.457,23.064-23.457h26.585
	c32.056,0,46.912-29.32,27.363-58.641c-7.035-10.165-15.245-19.547-23.063-27.366c0-4.69-0.393-7.818-0.393-7.818
	s31.275,21.501,50.823,50.821C401.956,278.583,386.709,307.905,355.043,307.905z"/>
<path fill="#FFDBB3" stroke="#FF8F00" stroke-width="8" stroke-linecap="round" stroke-linejoin="round" stroke-miterlimit="10" d="
	M817.132,593.291H637.3v-3.912c0-6.645,5.083-11.727,11.729-11.727h156.377c6.646,0,11.727,5.082,11.727,11.727L817.132,593.291
	L817.132,593.291z"/>
<path opacity="0.5" fill="#FF8F00" enable-background="new    " d="M695.943,519.01l7.818,19.547c0,0,59.423-2.346,101.646,11.729
	l-11.729-31.275H695.943z"/>
<path fill="#C0E7F9" stroke="#1B96D3" stroke-width="8" stroke-linecap="round" stroke-linejoin="round" stroke-miterlimit="10" d="
	M590.389,593.291h-78.187v-19.549h78.187c4.3,0,7.818,3.52,7.818,7.818v3.91C598.208,589.77,594.689,593.291,590.389,593.291z"/>
<path fill="#F2CF98" stroke="#C68D2D" stroke-width="8" stroke-linecap="round" stroke-linejoin="round" stroke-miterlimit="10" d="
	M590.389,573.742h-78.187v-19.547h54.729C579.834,554.196,590.389,560.842,590.389,573.742L590.389,573.742z"/>
<path opacity="0.2" fill="#C68D2D" enable-background="new    " d="M351.916,343.089v15.637c0,27.366-15.638,51.214-38.704,62.551
	c-5.08,2.736-8.209,7.818-8.209,13.683v21.501h-27.365v-22.283c0-11.337,6.255-22.283,16.027-27.366
	c16.812-9.383,41.05-28.146,46.522-63.723L351.916,343.089L351.916,343.089z"/>
<path fill="#FFB266" stroke="#FF8F00" stroke-width="8" stroke-linecap="round" stroke-linejoin="round" stroke-miterlimit="10" d="
	M844.499,593.291l-0.782,3.908l-3.126,11.729c-3.908,10.553-8.21,21.109-12.901,31.275h-80.532v113.371
	c0,1.174-2.737,2.736-4.301,3.91c-3.909,3.518-7.819,7.035-11.729,10.557c-2.735,2.344-5.474,4.688-8.21,7.037
	c-7.428,6.254-14.855,12.117-23.065,17.592c-5.081,3.518-11.727,7.035-15.638,10.555V640.203H285.456
	c-6.646,0-11.337-5.082-11.337-11.729v-35.184H844.499L844.499,593.291z"/>
<path opacity="0.6" fill="#FF9A2C" enable-background="new    " d="M844.499,597.199l-0.782,3.127
	c-0.779,2.734-1.953,5.863-3.126,8.602c-3.908,10.553-8.21,21.109-12.901,31.275h-84.442v117.281
	c-3.91,3.518-7.817,7.035-12.119,10.557c-2.735,2.344-5.474,4.688-8.21,7.037l-7.428,1.953V597.199H844.499z"/>
<g>
	
		<path fill="#48BC97" stroke="#099C6A" stroke-width="8" stroke-linecap="round" stroke-linejoin="round" stroke-miterlimit="10" d="
		M528.23,554.196v39.096H403.521c-5.473,0-10.947-1.564-16.028-4.693l-46.913-28.537v154.42H172.475v-0.391l-3.909-7.428V499.464
		c0-21.503,17.201-39.094,38.703-39.094h113.372c18.766,0,26.192,2.345,35.576,11.337l78.188,70.758L528.23,554.196z"/>
	<path opacity="0.3" fill="#099C6A" enable-background="new    " d="M422.284,573.742c0,0-66.458-44.176-82.097-58.641
		c-15.637-14.464-58.641-15.638-58.641-15.638L309.304,528v151.688l-18.767,30.885h50.041V560.451l46.521,32.84h141.129v-19.549
		H422.284z"/>
</g>
<path opacity="0.3" fill="#F05347" enable-background="new    " d="M438.314,753.574v105.555
	c-11.728-1.564-21.894-3.91-34.011-6.256c-0.393,0-1.173,0-1.173-0.393v-98.906c0-21.502-17.984-39.094-39.484-39.094h35.184
	C420.331,714.481,438.314,732.073,438.314,753.574z"/>
<g>
	
		<path fill="#4ABFEE" stroke="#1B96D3" stroke-width="8" stroke-linecap="round" stroke-linejoin="round" stroke-miterlimit="10" d="
		M305.396,530.74v179.832c0,1.174-0.392,2.734-0.392,3.908c-0.781,7.82-4.69,14.463-10.556,19.545
		c-5.474,4.693-12.9,7.82-20.719,7.82h-78.188l0,0c-8.21-8.6-16.028-17.592-23.457-27.365l0,0v-0.393
		c-1.173-1.562-2.345-3.127-3.518-4.691c-20.719-27.363-39.094-57.467-50.821-89.916v-88.74c0-17.203,13.683-31.276,30.883-31.276
		H273.73c3.127,0,5.863,0.391,8.991,1.174c10.556,3.127,18.765,11.728,21.501,22.282C305.003,525.266,305.396,528,305.396,530.74z"
		/>
	<path opacity="0.6" fill="#1B96D3" enable-background="new    " d="M301.485,724.254c0,9.771-7.819,17.592-17.592,17.592l0,0
		c-9.774,0-17.592-7.82-17.592-17.592V517.057c0-9.774,7.817-17.593,17.592-17.593l0,0c9.771,0,17.592,7.818,17.592,17.593V724.254z
		"/>
	<path opacity="0.6" fill="#1B96D3" enable-background="new    " d="M207.27,573.742h-39.094c-8.602,0-15.639-7.037-15.639-15.639
		l0,0c0-8.6,7.038-15.639,15.639-15.639h39.094c8.6,0,15.637,7.039,15.637,15.639l0,0
		C222.906,566.705,215.869,573.742,207.27,573.742z"/>
</g>
<path fill="none" stroke="#FF8F00" stroke-width="8" stroke-linecap="round" stroke-linejoin="round" stroke-miterlimit="10" d="
	M734.254,186.713c-68.414-60.987-158.72-97.734-257.236-97.734c-213.843,0-387.03,173.186-387.03,387.03
	c0,50.429,9.773,98.906,27.366,143.083c12.901,32.447,30.103,62.551,50.823,89.916c1.172,1.564,2.345,3.127,3.908,4.691
	c0,0,0,0.389,0.392,0.389c7.428,9.383,15.248,18.375,23.458,26.977c0,0,0,0,0,0.391c12.509,13.293,26.191,25.803,40.657,37.139
	c5.863,4.691,12.118,9.383,18.375,13.684c17.201,12.121,35.185,22.676,54.34,32.059c11.337,5.473,23.065,10.555,35.185,14.855
	c1.173,0.393,2.737,0.779,3.91,1.564c12.9,4.689,25.802,8.209,39.094,11.336c0.392,0,0.781,0.391,1.172,0.391
	c1.564,0.393,3.128,0.783,4.692,1.174c9.773,2.346,19.546,3.908,29.318,5.473c1.174,0.393,2.736,0.393,3.911,0.393
	c5.081,0.781,10.556,1.174,15.638,1.562c11.727,1.174,23.456,1.564,35.184,1.564c76.234,0,147.382-21.893,207.199-60.207
	c5.474-3.518,10.556-7.035,15.637-10.555c7.817-5.473,15.638-11.336,23.066-17.592c2.734-2.346,5.472-4.691,8.209-7.037
	c3.908-3.518,7.816-7.037,11.728-10.557c1.173-1.17,2.737-2.346,3.91-3.908c9.771-9.383,18.765-19.156,27.365-29.711
	c11.338-13.686,21.893-28.148,31.274-43.004c8.211-12.9,15.638-26.582,22.283-40.658c4.691-10.164,9.383-20.719,12.9-31.275
	c1.174-2.734,1.956-5.471,3.129-8.598c9.383-26.977,15.637-55.516,18.374-85.229"/>
</svg>
